<?xml version="1.0" encoding="UTF-8"?>
<svg xmlns="http://www.w3.org/2000/svg" width="1000" height="400" viewBox="0 0 1000 400">
<rect x="0" y="0" width="1000" height="400" fill="#ffffff" />
<rect x="50" y="50" width="900" height="300" fill="#ffffff" stroke="#000" />
<polyline fill="none" stroke="#2196f3" stroke-width="1" points="90.91,163.99 92.55,163.55 94.19,155.54 95.83,160.17 97.47,164.61 99.11,149.01 100.75,145.24 102.39,134.66 104.03,125.93 105.67,139.62 107.31,143.14 108.95,144.29 110.58,181.16 112.22,183.91 113.86,182.57 115.50,169.26 117.14,170.64 118.78,156.60 120.42,156.19 122.06,157.27 123.70,163.17 125.34,166.09 126.98,160.52 128.62,158.96 130.26,131.89 131.90,149.18 133.54,160.58 135.18,170.20 136.82,177.81 138.46,186.38 140.10,191.68 141.74,189.75 143.38,205.51 145.02,204.15 146.66,180.97 148.30,172.32 149.94,175.42 151.58,180.12 153.22,168.03 154.86,145.38 156.49,155.40 158.13,180.63 159.77,176.66 161.41,179.55 163.05,191.81 164.69,187.66 166.33,170.46 167.97,176.08 169.61,168.53 171.25,194.47 172.89,193.39 174.53,190.99 176.17,182.53 177.81,179.77 179.45,170.88 181.09,158.53 182.73,152.80 184.37,148.76 186.01,164.67 187.65,166.24 189.29,171.93 190.93,164.80 192.57,139.11 194.21,151.02 195.85,147.11 197.49,170.36 199.13,199.56 200.77,192.98 202.40,182.48 204.04,186.36 205.68,164.68 207.32,155.72 208.96,148.49 210.60,123.82 212.24,129.59 213.88,137.62 215.52,141.49 217.16,103.29 218.80,122.25 220.44,126.06 222.08,131.02 223.72,125.89 225.36,132.64 227.00,140.68 228.64,143.51 230.28,159.90 231.92,156.60 233.56,160.65 235.20,175.84 236.84,192.29 238.48,210.27 240.12,223.47 241.76,216.43 243.40,216.33 245.04,203.75 246.68,192.65 248.31,201.42 249.95,205.93 251.59,195.20 253.23,209.15 254.87,208.95 256.51,213.94 258.15,206.12 259.79,213.77 261.43,205.77 263.07,185.30 264.71,183.48 266.35,183.21 267.99,199.90 269.63,208.72 271.27,213.28 272.91,213.50 274.55,206.36 276.19,208.93 277.83,205.76 279.47,205.24 281.11,208.66 282.75,197.41 284.39,190.10 286.03,177.87 287.67,167.37 289.31,162.18 290.95,172.47 292.59,182.93 294.22,161.73 295.86,187.73 297.50,187.90 299.14,187.43 300.78,177.77 302.42,167.12 304.06,177.91 305.70,163.52 307.34,154.08 308.98,147.89 310.62,130.77 312.26,116.04 313.90,130.13 315.54,132.66 317.18,131.74 318.82,153.90 320.46,155.53 322.10,150.66 323.74,141.69 325.38,125.76 327.02,127.36 328.66,138.65 330.30,140.34 331.94,124.52 333.58,128.25 335.22,134.69 336.86,128.63 338.50,129.68 340.13,111.65 341.77,119.90 343.41,111.73 345.05,134.05 346.69,148.13 348.33,161.60 349.97,144.84 351.61,137.70 353.25,141.73 354.89,141.38 356.53,124.25 358.17,133.42 359.81,123.13 361.45,120.08 363.09,123.79 364.73,119.33 366.37,105.72 368.01,115.96 369.65,118.75 371.29,97.76 372.93,105.48 374.57,112.13 376.21,106.61 377.85,105.53 379.49,120.40 381.13,126.74 382.77,126.30 384.41,123.55 386.04,131.18 387.68,117.76 389.32,100.76 390.96,89.10 392.60,96.15 394.24,94.22 395.88,116.44 397.52,139.58 399.16,128.85 400.80,119.73 402.44,115.16 404.08,115.21 405.72,129.26 407.36,125.43 409.00,127.49 410.64,131.57 412.28,134.12 413.92,120.92 415.56,109.30 417.20,115.14 418.84,108.23 420.48,125.90 422.12,144.72 423.76,160.99 425.40,161.45 427.04,149.29 428.68,156.61 430.32,159.93 431.95,147.97 433.59,137.32 435.23,157.30 436.87,154.24 438.51,152.89 440.15,153.80 441.79,143.62 443.43,156.97 445.07,175.77 446.71,204.73 448.35,226.49 449.99,233.82 451.63,239.82 453.27,246.83 454.91,245.14 456.55,262.18 458.19,251.89 459.83,242.49 461.47,240.04 463.11,254.38 464.75,261.64 466.39,261.13 468.03,249.04 469.67,265.06 471.31,259.92 472.95,262.00 474.59,270.89 476.23,281.10 477.86,286.77 479.50,280.73 481.14,277.26 482.78,293.27 484.42,290.81 486.06,285.99 487.70,306.35 489.34,296.36 490.98,303.34 492.62,305.31 494.26,305.30 495.90,297.88 497.54,304.32 499.18,323.71 500.82,305.04 502.46,302.90 504.10,306.01 505.74,303.94 507.38,291.45 509.02,287.75 510.66,282.30 512.30,269.00 513.94,276.98 515.58,283.79 517.22,284.12 518.86,284.21 520.50,298.73 522.14,305.18 523.77,327.73 525.41,310.47 527.05,317.76 528.69,334.96 530.33,334.91 531.97,322.66 533.61,313.31 535.25,334.57 536.89,327.54 538.53,323.60 540.17,324.66 541.81,324.88 543.45,321.72 545.09,317.61 546.73,332.80 548.37,330.08 550.01,336.36 551.65,331.45 553.29,321.41 554.93,312.41 556.57,304.14 558.21,313.28 559.85,313.83 561.49,315.41 563.13,310.79 564.77,294.36 566.41,294.34 568.05,275.02 569.68,266.65 571.32,251.47 572.96,252.03 574.60,251.13 576.24,258.32 577.88,251.08 579.52,271.14 581.16,267.62 582.80,273.25 584.44,279.26 586.08,283.61 587.72,271.91 589.36,286.81 591.00,278.17 592.64,277.29 594.28,270.74 595.92,290.08 597.56,284.43 599.20,281.40 600.84,281.85 602.48,275.85 604.12,269.62 605.76,272.50 607.40,269.84 609.04,260.40 610.68,252.79 612.32,251.19 613.96,250.55 615.59,227.05 617.23,208.00 618.87,183.83 620.51,188.10 622.15,194.95 623.79,209.56 625.43,222.97 627.07,219.36 628.71,219.81 630.35,228.43 631.99,231.00 633.63,245.90 635.27,244.41 636.91,233.50 638.55,227.11 640.19,208.66 641.83,223.86 643.47,221.55 645.11,228.97 646.75,234.21 648.39,223.61 650.03,241.25 651.67,257.04 653.31,251.13 654.95,251.56 656.59,244.05 658.23,242.30 659.87,229.26 661.50,241.28 663.14,247.86 664.78,242.64 666.42,248.24 668.06,254.19 669.70,251.09 671.34,253.04 672.98,238.70 674.62,233.15 676.26,241.25 677.90,232.16 679.54,224.54 681.18,231.11 682.82,234.94 684.46,240.51 686.10,234.06 687.74,222.97 689.38,215.81 691.02,207.83 692.66,204.20 694.30,202.43 695.94,189.93 697.58,192.23 699.22,192.93 700.86,188.21 702.50,187.21 704.14,177.66 705.78,190.28 707.41,180.86 709.05,173.33 710.69,172.29 712.33,165.10 713.97,145.98 715.61,129.46 717.25,136.55 718.89,140.55 720.53,140.13 722.17,144.86 723.81,127.20 725.45,124.88 727.09,115.63 728.73,109.92 730.37,134.62 732.01,130.41 733.65,122.18 735.29,115.57 736.93,119.97 738.57,109.77 740.21,141.05 741.85,151.98 743.49,147.85 745.13,135.78 746.77,136.94 748.41,119.35 750.05,139.72 751.69,146.41 753.32,144.28 754.96,151.78 756.60,143.83 758.24,140.32 759.88,139.22 761.52,128.88 763.16,128.93 764.80,117.44 766.44,122.34 768.08,126.86 769.72,102.32 771.36,106.03 773.00,123.66 774.64,110.85 776.28,109.50 777.92,109.24 779.56,106.50 781.20,108.73 782.84,116.59 784.48,112.01 786.12,95.83 787.76,106.61 789.40,100.76 791.04,103.57 792.68,89.87 794.32,98.95 795.96,109.45 797.60,125.80 799.23,121.25 800.87,130.73 802.51,118.91 804.15,106.75 805.79,103.44 807.43,89.83 809.07,89.63 810.71,102.53 812.35,107.57 813.99,131.02 815.63,126.87 817.27,109.79 818.91,97.42 820.55,96.02 822.19,102.10 823.83,101.41 825.47,107.64 827.11,75.48 828.75,63.64 830.39,107.57 832.03,147.21 833.67,131.25 835.31,123.42 836.95,129.46 838.59,144.44 840.23,130.66 841.87,141.16 843.51,168.74 845.14,161.77 846.78,164.91 848.42,168.24 850.06,176.55 851.70,181.84 853.34,185.45 854.98,202.29 856.62,184.76 858.26,154.51 859.90,172.43 861.54,172.15 863.18,145.82 864.82,135.22 866.46,148.45 868.10,152.97 869.74,146.81 871.38,145.33 873.02,165.81 874.66,174.25 876.30,174.44 877.94,168.31 879.58,185.51 881.22,188.89 882.86,204.48 884.50,203.44 886.14,198.36 887.78,191.18 889.42,197.08 891.05,194.60 892.69,204.29 894.33,211.18 895.97,213.52 897.61,216.46 899.25,212.70 900.89,225.83 902.53,224.47 904.17,225.75 905.81,214.60 907.45,215.01 909.09,210.85" />
<line class="x-tick" x1="90.91" y1="350.00" x2="90.91" y2="355.00" stroke="#000" />
<text class="tick-label tick-label-x" x="90.91" y="357.00" text-anchor="middle" dominant-baseline="hanging" font-size="10" fill="#000">0</text>
<line class="x-tick" x1="254.87" y1="350.00" x2="254.87" y2="355.00" stroke="#000" />
<text class="tick-label tick-label-x" x="254.87" y="357.00" text-anchor="middle" dominant-baseline="hanging" font-size="10" fill="#000">100</text>
<line class="x-tick" x1="418.84" y1="350.00" x2="418.84" y2="355.00" stroke="#000" />
<text class="tick-label tick-label-x" x="418.84" y="357.00" text-anchor="middle" dominant-baseline="hanging" font-size="10" fill="#000">200</text>
<line class="x-tick" x1="582.80" y1="350.00" x2="582.80" y2="355.00" stroke="#000" />
<text class="tick-label tick-label-x" x="582.80" y="357.00" text-anchor="middle" dominant-baseline="hanging" font-size="10" fill="#000">300</text>
<line class="x-tick" x1="746.77" y1="350.00" x2="746.77" y2="355.00" stroke="#000" />
<text class="tick-label tick-label-x" x="746.77" y="357.00" text-anchor="middle" dominant-baseline="hanging" font-size="10" fill="#000">400</text>
<line class="x-tick" x1="910.73" y1="350.00" x2="910.73" y2="355.00" stroke="#000" />
<text class="tick-label tick-label-x" x="910.73" y="357.00" text-anchor="middle" dominant-baseline="hanging" font-size="10" fill="#000">500</text>
<line class="y-tick" x1="50.00" y1="331.90" x2="45.00" y2="331.90" stroke="#000" />
<text class="tick-label tick-label-y" x="43.00" y="331.90" text-anchor="end" dominant-baseline="middle" font-size="10" fill="#000">70</text>
<line class="y-tick" x1="50.00" y1="271.83" x2="45.00" y2="271.83" stroke="#000" />
<text class="tick-label tick-label-y" x="43.00" y="271.83" text-anchor="end" dominant-baseline="middle" font-size="10" fill="#000">80</text>
<line class="y-tick" x1="50.00" y1="211.77" x2="45.00" y2="211.77" stroke="#000" />
<text class="tick-label tick-label-y" x="43.00" y="211.77" text-anchor="end" dominant-baseline="middle" font-size="10" fill="#000">90</text>
<line class="y-tick" x1="50.00" y1="151.71" x2="45.00" y2="151.71" stroke="#000" />
<text class="tick-label tick-label-y" x="43.00" y="151.71" text-anchor="end" dominant-baseline="middle" font-size="10" fill="#000">100</text>
<line class="y-tick" x1="50.00" y1="91.65" x2="45.00" y2="91.65" stroke="#000" />
<text class="tick-label tick-label-y" x="43.00" y="91.65" text-anchor="end" dominant-baseline="middle" font-size="10" fill="#000">110</text>
<text x="500" y="40" text-anchor="middle" font-size="14" font-weight="bold" fill="#000">Stock Price Over Time</text>
<text x="500" y="385" text-anchor="middle" font-size="12" fill="#000">Day</text>
<text x="15" y="200" text-anchor="middle" font-size="12" fill="#000" transform="rotate(-90 15 200)">Price ($)</text>
</svg>