<?xml version="1.0" encoding="UTF-8"?>
<svg xmlns="http://www.w3.org/2000/svg" width="640" height="480" viewBox="0 0 640 480">
<rect x="0" y="0" width="640" height="480" fill="#ffffff" />
<rect x="50" y="50" width="540" height="380" fill="#ffffff" stroke="#000" />
<circle cx="435.58" cy="167.62" r="6" fill="#1f77b4" />
<circle cx="559.64" cy="74.78" r="6" fill="#1f77b4" />
<circle cx="506.05" cy="102.21" r="6" fill="#1f77b4" />
<circle cx="275.43" cy="262.70" r="6" fill="#1f77b4" />
<circle cx="342.68" cy="216.03" r="6" fill="#1f77b4" />
<circle cx="336.39" cy="222.12" r="6" fill="#1f77b4" />
<circle cx="269.78" cy="283.06" r="6" fill="#1f77b4" />
<circle cx="326.33" cy="241.91" r="6" fill="#1f77b4" />
<circle cx="565.45" cy="74.47" r="6" fill="#1f77b4" />
<circle cx="526.59" cy="94.34" r="6" fill="#1f77b4" />
<circle cx="277.51" cy="261.38" r="6" fill="#1f77b4" />
<circle cx="321.69" cy="246.95" r="6" fill="#1f77b4" />
<circle cx="366.90" cy="211.99" r="6" fill="#1f77b4" />
<circle cx="418.11" cy="169.87" r="6" fill="#1f77b4" />
<circle cx="314.12" cy="250.00" r="6" fill="#1f77b4" />
<circle cx="404.60" cy="182.92" r="6" fill="#1f77b4" />
<circle cx="232.75" cy="303.26" r="6" fill="#1f77b4" />
<circle cx="410.57" cy="174.88" r="6" fill="#1f77b4" />
<circle cx="356.50" cy="218.85" r="6" fill="#1f77b4" />
<circle cx="483.35" cy="127.50" r="6" fill="#1f77b4" />
<circle cx="260.31" cy="292.25" r="6" fill="#1f77b4" />
<circle cx="270.34" cy="278.12" r="6" fill="#1f77b4" />
<circle cx="556.43" cy="80.79" r="6" fill="#1f77b4" />
<circle cx="512.63" cy="98.78" r="6" fill="#1f77b4" />
<circle cx="311.92" cy="239.69" r="6" fill="#1f77b4" />
<circle cx="487.90" cy="122.13" r="6" fill="#1f77b4" />
<circle cx="261.98" cy="273.75" r="6" fill="#1f77b4" />
<circle cx="353.60" cy="222.26" r="6" fill="#1f77b4" />
<circle cx="356.67" cy="206.59" r="6" fill="#1f77b4" />
<circle cx="304.93" cy="253.34" r="6" fill="#1f77b4" />
<circle cx="434.48" cy="149.82" r="6" fill="#1f77b4" />
<circle cx="326.23" cy="232.12" r="6" fill="#1f77b4" />
<circle cx="491.71" cy="120.82" r="6" fill="#1f77b4" />
<circle cx="386.24" cy="194.99" r="6" fill="#1f77b4" />
<circle cx="401.17" cy="187.74" r="6" fill="#1f77b4" />
<circle cx="507.48" cy="103.33" r="6" fill="#1f77b4" />
<circle cx="454.42" cy="139.31" r="6" fill="#1f77b4" />
<circle cx="451.17" cy="141.64" r="6" fill="#1f77b4" />
<circle cx="323.17" cy="230.96" r="6" fill="#1f77b4" />
<circle cx="244.61" cy="285.84" r="6" fill="#1f77b4" />
<circle cx="552.74" cy="67.27" r="6" fill="#1f77b4" />
<circle cx="361.28" cy="216.12" r="6" fill="#1f77b4" />
<circle cx="258.99" cy="277.10" r="6" fill="#1f77b4" />
<circle cx="269.00" cy="279.09" r="6" fill="#1f77b4" />
<circle cx="409.79" cy="169.01" r="6" fill="#1f77b4" />
<circle cx="358.30" cy="220.71" r="6" fill="#1f77b4" />
<circle cx="341.05" cy="221.82" r="6" fill="#1f77b4" />
<circle cx="433.52" cy="159.32" r="6" fill="#1f77b4" />
<circle cx="524.92" cy="90.86" r="6" fill="#1f77b4" />
<circle cx="472.89" cy="122.79" r="6" fill="#1f77b4" />
<polyline fill="none" stroke="#ff0000" stroke-width="2" points="74.55,412.73 75.53,412.03 76.51,411.34" />
<line class="x-tick" x1="74.55" y1="430.00" x2="74.55" y2="435.00" stroke="#000" />
<text class="tick-label tick-label-x" x="74.55" y="437.00" text-anchor="middle" dominant-baseline="hanging" font-size="10" fill="#000">0</text>
<line class="x-tick" x1="270.67" y1="430.00" x2="270.67" y2="435.00" stroke="#000" />
<text class="tick-label tick-label-x" x="270.67" y="437.00" text-anchor="middle" dominant-baseline="hanging" font-size="10" fill="#000">200</text>
<line class="x-tick" x1="466.79" y1="430.00" x2="466.79" y2="435.00" stroke="#000" />
<text class="tick-label tick-label-x" x="466.79" y="437.00" text-anchor="middle" dominant-baseline="hanging" font-size="10" fill="#000">400</text>
<line class="y-tick" x1="50.00" y1="412.73" x2="45.00" y2="412.73" stroke="#000" />
<text class="tick-label tick-label-y" x="43.00" y="412.73" text-anchor="end" dominant-baseline="middle" font-size="10" fill="#000">0</text>
<line class="y-tick" x1="50.00" y1="274.25" x2="45.00" y2="274.25" stroke="#000" />
<text class="tick-label tick-label-y" x="43.00" y="274.25" text-anchor="end" dominant-baseline="middle" font-size="10" fill="#000">200</text>
<line class="y-tick" x1="50.00" y1="135.77" x2="45.00" y2="135.77" stroke="#000" />
<text class="tick-label tick-label-y" x="43.00" y="135.77" text-anchor="end" dominant-baseline="middle" font-size="10" fill="#000">400</text>
<text x="320" y="40" text-anchor="middle" font-size="14" font-weight="bold" fill="#000">Predictions vs Actual</text>
<text x="320" y="465" text-anchor="middle" font-size="12" fill="#000">Actual Values</text>
<text x="15" y="240" text-anchor="middle" font-size="12" fill="#000" transform="rotate(-90 15 240)">Predicted Values</text>
</svg>