<?xml version="1.0" encoding="UTF-8"?>
<svg xmlns="http://www.w3.org/2000/svg" width="640" height="480" viewBox="0 0 640 480">
<rect x="0" y="0" width="640" height="480" fill="#ffffff" />
<rect x="50" y="50" width="540" height="380" fill="#ffffff" stroke="#000" />
<polyline fill="none" stroke="#1f77b4" stroke-width="2" points="74.55,240.01 79.50,229.06 84.46,218.14 89.42,207.32 94.38,196.63 99.34,186.11 104.30,175.81 109.26,165.77 114.21,156.03 119.17,146.62 124.13,137.59 129.09,128.98 134.05,120.81 139.01,113.12 143.97,105.94 148.93,99.30 153.88,93.23 158.84,87.75 163.80,82.88 168.76,78.65 173.72,75.06 178.68,72.14 183.64,69.90 188.60,68.34 193.55,67.47 198.51,67.29 203.47,67.82 208.43,69.03 213.39,70.93 218.35,73.52 223.31,76.77 228.26,80.69 233.22,85.24 238.18,90.42 243.14,96.19 248.10,102.55 253.06,109.46 258.02,116.90 262.98,124.83 267.93,133.23 272.89,142.06 277.85,151.28 282.81,160.86 287.77,170.75 292.73,180.93 297.69,191.34 302.64,201.95 307.60,212.72 312.56,223.59 317.52,234.53 322.48,245.49 327.44,256.43 332.40,267.30 337.36,278.07 342.31,288.68 347.27,299.09 352.23,309.27 357.19,319.16 362.15,328.74 367.11,337.96 372.07,346.79 377.02,355.19 381.98,363.12 386.94,370.56 391.90,377.47 396.86,383.83 401.82,389.61 406.78,394.78 411.74,399.34 416.69,403.25 421.65,406.50 426.61,409.09 431.57,410.99 436.53,412.21 441.49,412.73 446.45,412.55 451.40,411.68 456.36,410.12 461.32,407.88 466.28,404.96 471.24,401.37 476.20,397.14 481.16,392.27 486.12,386.79 491.07,380.72 496.03,374.08 500.99,366.90 505.95,359.21 510.91,351.04 515.87,342.43 520.83,333.40 525.79,324.00 530.74,314.25 535.70,304.21 540.66,293.91 545.62,283.39 550.58,272.70 555.54,261.88 560.50,250.97 565.45,240.01" />
<polyline fill="none" stroke="#ff7f0e" stroke-width="2" points="74.55,67.27 79.50,67.62 84.46,68.66 89.42,70.39 94.38,72.81 99.34,75.90 104.30,79.65 109.26,84.04 114.21,89.06 119.17,94.69 124.13,100.91 129.09,107.69 134.05,114.99 139.01,122.81 143.97,131.09 148.93,139.81 153.88,148.94 158.84,158.43 163.80,168.25 168.76,178.36 173.72,188.72 178.68,199.29 183.64,210.02 188.60,220.86 193.55,231.79 198.51,242.75 203.47,253.70 208.43,264.59 213.39,275.39 218.35,286.04 223.31,296.51 228.26,306.75 233.22,316.72 238.18,326.38 243.14,335.69 248.10,344.62 253.06,353.13 258.02,361.18 262.98,368.75 267.93,375.79 272.89,382.29 277.85,388.22 282.81,393.55 287.77,398.26 292.73,402.33 297.69,405.75 302.64,408.50 307.60,410.58 312.56,411.97 317.52,412.66 322.48,412.66 327.44,411.97 332.40,410.58 337.36,408.50 342.31,405.75 347.27,402.33 352.23,398.26 357.19,393.55 362.15,388.22 367.11,382.29 372.07,375.79 377.02,368.75 381.98,361.18 386.94,353.13 391.90,344.62 396.86,335.69 401.82,326.38 406.78,316.72 411.74,306.75 416.69,296.51 421.65,286.04 426.61,275.39 431.57,264.59 436.53,253.70 441.49,242.75 446.45,231.79 451.40,220.86 456.36,210.02 461.32,199.29 466.28,188.72 471.24,178.36 476.20,168.25 481.16,158.43 486.12,148.94 491.07,139.81 496.03,131.09 500.99,122.81 505.95,114.99 510.91,107.69 515.87,100.91 520.83,94.69 525.79,89.06 530.74,84.04 535.70,79.65 540.66,75.90 545.62,72.81 550.58,70.39 555.54,68.66 560.50,67.62 565.45,67.27" />
<line class="x-tick" x1="74.55" y1="430.00" x2="74.55" y2="435.00" stroke="#000" />
<text class="tick-label tick-label-x" x="74.55" y="437.00" text-anchor="middle" dominant-baseline="hanging" font-size="10" fill="#000">0</text>
<line class="x-tick" x1="230.81" y1="430.00" x2="230.81" y2="435.00" stroke="#000" />
<text class="tick-label tick-label-x" x="230.81" y="437.00" text-anchor="middle" dominant-baseline="hanging" font-size="10" fill="#000">2</text>
<line class="x-tick" x1="387.07" y1="430.00" x2="387.07" y2="435.00" stroke="#000" />
<text class="tick-label tick-label-x" x="387.07" y="437.00" text-anchor="middle" dominant-baseline="hanging" font-size="10" fill="#000">4</text>
<line class="x-tick" x1="543.33" y1="430.00" x2="543.33" y2="435.00" stroke="#000" />
<text class="tick-label tick-label-x" x="543.33" y="437.00" text-anchor="middle" dominant-baseline="hanging" font-size="10" fill="#000">6</text>
<line class="y-tick" x1="50.00" y1="412.75" x2="45.00" y2="412.75" stroke="#000" />
<text class="tick-label tick-label-y" x="43.00" y="412.75" text-anchor="end" dominant-baseline="middle" font-size="10" fill="#000">-1</text>
<line class="y-tick" x1="50.00" y1="326.38" x2="45.00" y2="326.38" stroke="#000" />
<text class="tick-label tick-label-y" x="43.00" y="326.38" text-anchor="end" dominant-baseline="middle" font-size="10" fill="#000">-0.5</text>
<line class="y-tick" x1="50.00" y1="240.01" x2="45.00" y2="240.01" stroke="#000" />
<text class="tick-label tick-label-y" x="43.00" y="240.01" text-anchor="end" dominant-baseline="middle" font-size="10" fill="#000">0</text>
<line class="y-tick" x1="50.00" y1="153.64" x2="45.00" y2="153.64" stroke="#000" />
<text class="tick-label tick-label-y" x="43.00" y="153.64" text-anchor="end" dominant-baseline="middle" font-size="10" fill="#000">0.5</text>
<line class="y-tick" x1="50.00" y1="67.27" x2="45.00" y2="67.27" stroke="#000" />
<text class="tick-label tick-label-y" x="43.00" y="67.27" text-anchor="end" dominant-baseline="middle" font-size="10" fill="#000">1</text>
<text x="320" y="40" text-anchor="middle" font-size="14" font-weight="bold" fill="#000">Sine and Cosine Functions</text>
<text x="320" y="465" text-anchor="middle" font-size="12" fill="#000">x</text>
<text x="15" y="240" text-anchor="middle" font-size="12" fill="#000" transform="rotate(-90 15 240)">y</text>
</svg>