<?xml version="1.0" encoding="UTF-8"?>
<svg xmlns="http://www.w3.org/2000/svg" width="640" height="480" viewBox="0 0 640 480">
<rect x="0" y="0" width="640" height="480" fill="#ffffff" />
<rect x="50" y="50" width="540" height="380" fill="#ffffff" stroke="#000" />
<circle cx="74.55" cy="412.73" r="8" fill="#2ca02c" />
<circle cx="129.09" cy="377.79" r="8" fill="#2ca02c" />
<circle cx="183.64" cy="342.86" r="8" fill="#2ca02c" />
<circle cx="238.18" cy="305.99" r="8" fill="#2ca02c" />
<circle cx="292.73" cy="259.41" r="8" fill="#2ca02c" />
<circle cx="347.27" cy="228.36" r="8" fill="#2ca02c" />
<circle cx="401.82" cy="179.84" r="8" fill="#2ca02c" />
<circle cx="456.36" cy="144.90" r="8" fill="#2ca02c" />
<circle cx="510.91" cy="109.97" r="8" fill="#2ca02c" />
<circle cx="565.45" cy="67.27" r="8" fill="#2ca02c" />
<line class="x-tick" x1="129.09" y1="430.00" x2="129.09" y2="435.00" stroke="#000" />
<text class="tick-label tick-label-x" x="129.09" y="437.00" text-anchor="middle" dominant-baseline="hanging" font-size="10" fill="#000">2</text>
<line class="x-tick" x1="238.18" y1="430.00" x2="238.18" y2="435.00" stroke="#000" />
<text class="tick-label tick-label-x" x="238.18" y="437.00" text-anchor="middle" dominant-baseline="hanging" font-size="10" fill="#000">4</text>
<line class="x-tick" x1="347.27" y1="430.00" x2="347.27" y2="435.00" stroke="#000" />
<text class="tick-label tick-label-x" x="347.27" y="437.00" text-anchor="middle" dominant-baseline="hanging" font-size="10" fill="#000">6</text>
<line class="x-tick" x1="456.36" y1="430.00" x2="456.36" y2="435.00" stroke="#000" />
<text class="tick-label tick-label-x" x="456.36" y="437.00" text-anchor="middle" dominant-baseline="hanging" font-size="10" fill="#000">8</text>
<line class="x-tick" x1="565.45" y1="430.00" x2="565.45" y2="435.00" stroke="#000" />
<text class="tick-label tick-label-x" x="565.45" y="437.00" text-anchor="middle" dominant-baseline="hanging" font-size="10" fill="#000">10</text>
<line class="y-tick" x1="50.00" y1="408.85" x2="45.00" y2="408.85" stroke="#000" />
<text class="tick-label tick-label-y" x="43.00" y="408.85" text-anchor="end" dominant-baseline="middle" font-size="10" fill="#000">3</text>
<line class="y-tick" x1="50.00" y1="360.33" x2="45.00" y2="360.33" stroke="#000" />
<text class="tick-label tick-label-y" x="43.00" y="360.33" text-anchor="end" dominant-baseline="middle" font-size="10" fill="#000">5</text>
<line class="y-tick" x1="50.00" y1="311.81" x2="45.00" y2="311.81" stroke="#000" />
<text class="tick-label tick-label-y" x="43.00" y="311.81" text-anchor="end" dominant-baseline="middle" font-size="10" fill="#000">8</text>
<line class="y-tick" x1="50.00" y1="263.29" x2="45.00" y2="263.29" stroke="#000" />
<text class="tick-label tick-label-y" x="43.00" y="263.29" text-anchor="end" dominant-baseline="middle" font-size="10" fill="#000">10</text>
<line class="y-tick" x1="50.00" y1="214.77" x2="45.00" y2="214.77" stroke="#000" />
<text class="tick-label tick-label-y" x="43.00" y="214.77" text-anchor="end" dominant-baseline="middle" font-size="10" fill="#000">13</text>
<line class="y-tick" x1="50.00" y1="166.25" x2="45.00" y2="166.25" stroke="#000" />
<text class="tick-label tick-label-y" x="43.00" y="166.25" text-anchor="end" dominant-baseline="middle" font-size="10" fill="#000">15</text>
<line class="y-tick" x1="50.00" y1="117.73" x2="45.00" y2="117.73" stroke="#000" />
<text class="tick-label tick-label-y" x="43.00" y="117.73" text-anchor="end" dominant-baseline="middle" font-size="10" fill="#000">18</text>
<line class="y-tick" x1="50.00" y1="69.21" x2="45.00" y2="69.21" stroke="#000" />
<text class="tick-label tick-label-y" x="43.00" y="69.21" text-anchor="end" dominant-baseline="middle" font-size="10" fill="#000">20</text>
<text x="320" y="40" text-anchor="middle" font-size="14" font-weight="bold" fill="#000">Scatter Plot Example</text>
<text x="320" y="465" text-anchor="middle" font-size="12" fill="#000">X values</text>
<text x="15" y="240" text-anchor="middle" font-size="12" fill="#000" transform="rotate(-90 15 240)">Y values</text>
</svg>