<?xml version="1.0" encoding="UTF-8"?>
<svg xmlns="http://www.w3.org/2000/svg" width="800" height="600" viewBox="0 0 800 600">
<rect x="0" y="0" width="800" height="600" fill="#ffffff" />
<rect x="50" y="50" width="700" height="500" fill="#ffffff" stroke="#000" />
<circle cx="169.98" cy="297.89" r="5" fill="#2196f3" />
<circle cx="508.96" cy="345.09" r="5" fill="#2196f3" />
<circle cx="378.46" cy="307.99" r="5" fill="#2196f3" />
<circle cx="231.55" cy="413.04" r="5" fill="#2196f3" />
<circle cx="337.88" cy="477.04" r="5" fill="#2196f3" />
<circle cx="591.85" cy="340.52" r="5" fill="#2196f3" />
<circle cx="289.33" cy="332.95" r="5" fill="#2196f3" />
<circle cx="633.02" cy="364.04" r="5" fill="#2196f3" />
<circle cx="439.42" cy="243.64" r="5" fill="#2196f3" />
<circle cx="412.05" cy="446.78" r="5" fill="#2196f3" />
<circle cx="467.53" cy="391.41" r="5" fill="#2196f3" />
<circle cx="493.82" cy="205.34" r="5" fill="#2196f3" />
<circle cx="391.59" cy="343.29" r="5" fill="#2196f3" />
<circle cx="467.34" cy="298.71" r="5" fill="#2196f3" />
<circle cx="571.77" cy="268.66" r="5" fill="#2196f3" />
<circle cx="263.95" cy="267.02" r="5" fill="#2196f3" />
<circle cx="233.31" cy="352.46" r="5" fill="#2196f3" />
<circle cx="341.20" cy="306.52" r="5" fill="#2196f3" />
<circle cx="412.23" cy="398.77" r="5" fill="#2196f3" />
<circle cx="559.08" cy="367.13" r="5" fill="#2196f3" />
<circle cx="518.57" cy="358.24" r="5" fill="#2196f3" />
<circle cx="450.90" cy="301.89" r="5" fill="#2196f3" />
<circle cx="186.63" cy="426.04" r="5" fill="#2196f3" />
<circle cx="301.11" cy="139.98" r="5" fill="#2196f3" />
<circle cx="356.78" cy="422.75" r="5" fill="#2196f3" />
<circle cx="490.63" cy="372.72" r="5" fill="#2196f3" />
<circle cx="397.33" cy="222.81" r="5" fill="#2196f3" />
<circle cx="254.38" cy="456.23" r="5" fill="#2196f3" />
<circle cx="573.54" cy="397.59" r="5" fill="#2196f3" />
<circle cx="503.57" cy="327.01" r="5" fill="#2196f3" />
<circle cx="320.21" cy="215.44" r="5" fill="#2196f3" />
<circle cx="312.02" cy="287.58" r="5" fill="#2196f3" />
<circle cx="610.92" cy="254.53" r="5" fill="#2196f3" />
<circle cx="529.83" cy="333.18" r="5" fill="#2196f3" />
<circle cx="436.77" cy="458.33" r="5" fill="#2196f3" />
<circle cx="347.01" cy="481.00" r="5" fill="#2196f3" />
<circle cx="451.58" cy="410.39" r="5" fill="#2196f3" />
<circle cx="687.04" cy="326.87" r="5" fill="#2196f3" />
<circle cx="375.91" cy="391.98" r="5" fill="#2196f3" />
<circle cx="244.88" cy="255.06" r="5" fill="#2196f3" />
<circle cx="423.24" cy="395.87" r="5" fill="#2196f3" />
<circle cx="250.41" cy="269.47" r="5" fill="#2196f3" />
<circle cx="577.46" cy="299.17" r="5" fill="#2196f3" />
<circle cx="522.16" cy="388.80" r="5" fill="#2196f3" />
<circle cx="355.24" cy="164.90" r="5" fill="#2196f3" />
<circle cx="429.06" cy="439.15" r="5" fill="#2196f3" />
<circle cx="307.02" cy="72.73" r="5" fill="#2196f3" />
<circle cx="665.44" cy="392.67" r="5" fill="#2196f3" />
<circle cx="373.43" cy="364.17" r="5" fill="#2196f3" />
<circle cx="576.26" cy="274.01" r="5" fill="#2196f3" />
<circle cx="449.48" cy="442.48" r="5" fill="#2196f3" />
<circle cx="485.31" cy="262.41" r="5" fill="#2196f3" />
<circle cx="592.22" cy="363.26" r="5" fill="#2196f3" />
<circle cx="447.34" cy="273.51" r="5" fill="#2196f3" />
<circle cx="497.36" cy="317.98" r="5" fill="#2196f3" />
<circle cx="455.06" cy="299.19" r="5" fill="#2196f3" />
<circle cx="544.19" cy="163.18" r="5" fill="#2196f3" />
<circle cx="406.43" cy="363.02" r="5" fill="#2196f3" />
<circle cx="523.00" cy="334.30" r="5" fill="#2196f3" />
<circle cx="357.26" cy="484.54" r="5" fill="#2196f3" />
<circle cx="182.30" cy="344.90" r="5" fill="#2196f3" />
<circle cx="500.61" cy="469.84" r="5" fill="#2196f3" />
<circle cx="623.53" cy="370.42" r="5" fill="#2196f3" />
<circle cx="649.67" cy="349.59" r="5" fill="#2196f3" />
<circle cx="419.99" cy="447.12" r="5" fill="#2196f3" />
<circle cx="531.09" cy="323.40" r="5" fill="#2196f3" />
<circle cx="324.62" cy="417.13" r="5" fill="#2196f3" />
<circle cx="548.40" cy="428.50" r="5" fill="#2196f3" />
<circle cx="593.19" cy="314.45" r="5" fill="#2196f3" />
<circle cx="718.18" cy="352.94" r="5" fill="#2196f3" />
<circle cx="327.15" cy="405.17" r="5" fill="#2196f3" />
<circle cx="395.01" cy="312.36" r="5" fill="#2196f3" />
<circle cx="432.95" cy="461.21" r="5" fill="#2196f3" />
<circle cx="329.15" cy="314.42" r="5" fill="#2196f3" />
<circle cx="467.75" cy="321.13" r="5" fill="#2196f3" />
<circle cx="594.71" cy="345.52" r="5" fill="#2196f3" />
<circle cx="491.91" cy="324.80" r="5" fill="#2196f3" />
<circle cx="293.72" cy="352.61" r="5" fill="#2196f3" />
<circle cx="469.36" cy="356.01" r="5" fill="#2196f3" />
<circle cx="404.54" cy="268.94" r="5" fill="#2196f3" />
<circle cx="445.66" cy="391.04" r="5" fill="#2196f3" />
<circle cx="539.79" cy="405.41" r="5" fill="#2196f3" />
<circle cx="396.92" cy="330.96" r="5" fill="#2196f3" />
<circle cx="417.48" cy="338.09" r="5" fill="#2196f3" />
<circle cx="512.39" cy="302.77" r="5" fill="#2196f3" />
<circle cx="81.82" cy="346.19" r="5" fill="#2196f3" />
<circle cx="520.67" cy="321.56" r="5" fill="#2196f3" />
<circle cx="494.06" cy="309.74" r="5" fill="#2196f3" />
<circle cx="249.79" cy="303.19" r="5" fill="#2196f3" />
<circle cx="545.17" cy="341.93" r="5" fill="#2196f3" />
<circle cx="379.74" cy="348.17" r="5" fill="#2196f3" />
<circle cx="439.47" cy="354.49" r="5" fill="#2196f3" />
<circle cx="486.62" cy="325.69" r="5" fill="#2196f3" />
<circle cx="364.32" cy="527.27" r="5" fill="#2196f3" />
<circle cx="536.59" cy="455.48" r="5" fill="#2196f3" />
<circle cx="334.08" cy="356.90" r="5" fill="#2196f3" />
<circle cx="285.78" cy="361.84" r="5" fill="#2196f3" />
<circle cx="268.31" cy="363.49" r="5" fill="#2196f3" />
<circle cx="444.14" cy="475.69" r="5" fill="#2196f3" />
<circle cx="272.54" cy="308.06" r="5" fill="#2196f3" />
<circle cx="414.52" cy="342.22" r="5" fill="#2196f3" />
<circle cx="539.13" cy="498.87" r="5" fill="#2196f3" />
<circle cx="505.96" cy="305.28" r="5" fill="#2196f3" />
<circle cx="578.34" cy="321.88" r="5" fill="#2196f3" />
<circle cx="423.22" cy="330.92" r="5" fill="#2196f3" />
<circle cx="351.56" cy="282.35" r="5" fill="#2196f3" />
<circle cx="267.18" cy="199.20" r="5" fill="#2196f3" />
<circle cx="363.62" cy="490.39" r="5" fill="#2196f3" />
<circle cx="469.71" cy="167.71" r="5" fill="#2196f3" />
<circle cx="592.91" cy="320.39" r="5" fill="#2196f3" />
<circle cx="594.70" cy="332.16" r="5" fill="#2196f3" />
<circle cx="359.67" cy="370.56" r="5" fill="#2196f3" />
<circle cx="621.99" cy="299.83" r="5" fill="#2196f3" />
<circle cx="536.08" cy="375.00" r="5" fill="#2196f3" />
<circle cx="579.82" cy="341.26" r="5" fill="#2196f3" />
<circle cx="386.29" cy="198.84" r="5" fill="#2196f3" />
<circle cx="361.09" cy="288.67" r="5" fill="#2196f3" />
<circle cx="136.77" cy="415.32" r="5" fill="#2196f3" />
<circle cx="230.73" cy="437.35" r="5" fill="#2196f3" />
<circle cx="332.16" cy="298.24" r="5" fill="#2196f3" />
<circle cx="204.03" cy="324.82" r="5" fill="#2196f3" />
<circle cx="217.49" cy="410.78" r="5" fill="#2196f3" />
<circle cx="330.53" cy="379.80" r="5" fill="#2196f3" />
<circle cx="324.60" cy="498.63" r="5" fill="#2196f3" />
<circle cx="342.12" cy="267.95" r="5" fill="#2196f3" />
<circle cx="234.94" cy="411.75" r="5" fill="#2196f3" />
<circle cx="385.35" cy="410.34" r="5" fill="#2196f3" />
<circle cx="531.05" cy="234.02" r="5" fill="#2196f3" />
<circle cx="377.32" cy="311.95" r="5" fill="#2196f3" />
<circle cx="390.07" cy="247.26" r="5" fill="#2196f3" />
<circle cx="411.16" cy="156.83" r="5" fill="#2196f3" />
<circle cx="329.68" cy="265.73" r="5" fill="#2196f3" />
<circle cx="421.95" cy="356.10" r="5" fill="#2196f3" />
<circle cx="446.87" cy="391.42" r="5" fill="#2196f3" />
<circle cx="250.55" cy="422.01" r="5" fill="#2196f3" />
<circle cx="453.33" cy="163.96" r="5" fill="#2196f3" />
<circle cx="332.20" cy="362.72" r="5" fill="#2196f3" />
<circle cx="524.63" cy="197.72" r="5" fill="#2196f3" />
<circle cx="419.45" cy="325.56" r="5" fill="#2196f3" />
<circle cx="237.22" cy="262.64" r="5" fill="#2196f3" />
<circle cx="593.44" cy="322.71" r="5" fill="#2196f3" />
<circle cx="382.40" cy="399.67" r="5" fill="#2196f3" />
<circle cx="451.25" cy="205.51" r="5" fill="#2196f3" />
<circle cx="498.48" cy="359.72" r="5" fill="#2196f3" />
<circle cx="593.34" cy="325.14" r="5" fill="#2196f3" />
<circle cx="340.03" cy="283.13" r="5" fill="#2196f3" />
<circle cx="447.86" cy="286.78" r="5" fill="#2196f3" />
<circle cx="587.52" cy="429.50" r="5" fill="#2196f3" />
<circle cx="409.57" cy="170.75" r="5" fill="#2196f3" />
<circle cx="286.33" cy="189.34" r="5" fill="#2196f3" />
<circle cx="428.26" cy="417.56" r="5" fill="#2196f3" />
<circle cx="485.73" cy="375.29" r="5" fill="#2196f3" />
<circle cx="432.48" cy="360.88" r="5" fill="#2196f3" />
<circle cx="309.93" cy="371.24" r="5" fill="#2196f3" />
<circle cx="530.83" cy="366.42" r="5" fill="#2196f3" />
<circle cx="453.98" cy="386.31" r="5" fill="#2196f3" />
<circle cx="328.64" cy="312.32" r="5" fill="#2196f3" />
<circle cx="389.76" cy="489.96" r="5" fill="#2196f3" />
<circle cx="676.16" cy="374.98" r="5" fill="#2196f3" />
<circle cx="584.20" cy="280.01" r="5" fill="#2196f3" />
<circle cx="323.43" cy="273.70" r="5" fill="#2196f3" />
<circle cx="595.27" cy="350.20" r="5" fill="#2196f3" />
<circle cx="290.13" cy="142.06" r="5" fill="#2196f3" />
<circle cx="379.30" cy="404.61" r="5" fill="#2196f3" />
<circle cx="454.87" cy="308.23" r="5" fill="#2196f3" />
<circle cx="317.12" cy="369.04" r="5" fill="#2196f3" />
<circle cx="504.36" cy="508.76" r="5" fill="#2196f3" />
<circle cx="317.13" cy="177.87" r="5" fill="#2196f3" />
<circle cx="199.33" cy="383.02" r="5" fill="#2196f3" />
<circle cx="496.91" cy="342.22" r="5" fill="#2196f3" />
<circle cx="325.92" cy="400.86" r="5" fill="#2196f3" />
<circle cx="275.64" cy="357.48" r="5" fill="#2196f3" />
<circle cx="683.22" cy="357.19" r="5" fill="#2196f3" />
<circle cx="411.18" cy="291.10" r="5" fill="#2196f3" />
<circle cx="488.40" cy="471.70" r="5" fill="#2196f3" />
<circle cx="335.16" cy="344.03" r="5" fill="#2196f3" />
<circle cx="288.43" cy="291.50" r="5" fill="#2196f3" />
<circle cx="391.28" cy="346.80" r="5" fill="#2196f3" />
<circle cx="368.44" cy="485.42" r="5" fill="#2196f3" />
<circle cx="467.71" cy="377.16" r="5" fill="#2196f3" />
<circle cx="471.14" cy="309.14" r="5" fill="#2196f3" />
<circle cx="253.54" cy="435.72" r="5" fill="#2196f3" />
<circle cx="402.11" cy="343.62" r="5" fill="#2196f3" />
<circle cx="531.18" cy="495.80" r="5" fill="#2196f3" />
<circle cx="693.00" cy="356.15" r="5" fill="#2196f3" />
<circle cx="391.60" cy="499.43" r="5" fill="#2196f3" />
<circle cx="232.10" cy="403.02" r="5" fill="#2196f3" />
<circle cx="511.97" cy="361.27" r="5" fill="#2196f3" />
<circle cx="378.59" cy="371.80" r="5" fill="#2196f3" />
<circle cx="281.04" cy="365.13" r="5" fill="#2196f3" />
<circle cx="432.92" cy="450.07" r="5" fill="#2196f3" />
<circle cx="603.69" cy="384.04" r="5" fill="#2196f3" />
<circle cx="452.16" cy="380.23" r="5" fill="#2196f3" />
<circle cx="592.17" cy="234.08" r="5" fill="#2196f3" />
<circle cx="288.10" cy="344.08" r="5" fill="#2196f3" />
<circle cx="378.24" cy="362.44" r="5" fill="#2196f3" />
<circle cx="451.53" cy="434.57" r="5" fill="#2196f3" />
<circle cx="557.80" cy="402.95" r="5" fill="#2196f3" />
<circle cx="450.84" cy="223.09" r="5" fill="#2196f3" />
<circle cx="612.29" cy="258.57" r="5" fill="#2196f3" />
<line class="x-tick" x1="69.68" y1="550.00" x2="69.68" y2="555.00" stroke="#000" />
<text class="tick-label tick-label-x" x="69.68" y="557.00" text-anchor="middle" dominant-baseline="hanging" font-size="10" fill="#000">-10</text>
<line class="x-tick" x1="140.73" y1="550.00" x2="140.73" y2="555.00" stroke="#000" />
<text class="tick-label tick-label-x" x="140.73" y="557.00" text-anchor="middle" dominant-baseline="hanging" font-size="10" fill="#000">-8</text>
<line class="x-tick" x1="211.79" y1="550.00" x2="211.79" y2="555.00" stroke="#000" />
<text class="tick-label tick-label-x" x="211.79" y="557.00" text-anchor="middle" dominant-baseline="hanging" font-size="10" fill="#000">-6</text>
<line class="x-tick" x1="282.85" y1="550.00" x2="282.85" y2="555.00" stroke="#000" />
<text class="tick-label tick-label-x" x="282.85" y="557.00" text-anchor="middle" dominant-baseline="hanging" font-size="10" fill="#000">-4</text>
<line class="x-tick" x1="353.91" y1="550.00" x2="353.91" y2="555.00" stroke="#000" />
<text class="tick-label tick-label-x" x="353.91" y="557.00" text-anchor="middle" dominant-baseline="hanging" font-size="10" fill="#000">-2</text>
<line class="x-tick" x1="424.97" y1="550.00" x2="424.97" y2="555.00" stroke="#000" />
<text class="tick-label tick-label-x" x="424.97" y="557.00" text-anchor="middle" dominant-baseline="hanging" font-size="10" fill="#000">0</text>
<line class="x-tick" x1="496.03" y1="550.00" x2="496.03" y2="555.00" stroke="#000" />
<text class="tick-label tick-label-x" x="496.03" y="557.00" text-anchor="middle" dominant-baseline="hanging" font-size="10" fill="#000">2</text>
<line class="x-tick" x1="567.09" y1="550.00" x2="567.09" y2="555.00" stroke="#000" />
<text class="tick-label tick-label-x" x="567.09" y="557.00" text-anchor="middle" dominant-baseline="hanging" font-size="10" fill="#000">4</text>
<line class="x-tick" x1="638.15" y1="550.00" x2="638.15" y2="555.00" stroke="#000" />
<text class="tick-label tick-label-x" x="638.15" y="557.00" text-anchor="middle" dominant-baseline="hanging" font-size="10" fill="#000">6</text>
<line class="x-tick" x1="709.20" y1="550.00" x2="709.20" y2="555.00" stroke="#000" />
<text class="tick-label tick-label-x" x="709.20" y="557.00" text-anchor="middle" dominant-baseline="hanging" font-size="10" fill="#000">8</text>
<line class="y-tick" x1="50.00" y1="500.51" x2="45.00" y2="500.51" stroke="#000" />
<text class="tick-label tick-label-y" x="43.00" y="500.51" text-anchor="end" dominant-baseline="middle" font-size="10" fill="#000">-2</text>
<line class="y-tick" x1="50.00" y1="421.87" x2="45.00" y2="421.87" stroke="#000" />
<text class="tick-label tick-label-y" x="43.00" y="421.87" text-anchor="end" dominant-baseline="middle" font-size="10" fill="#000">-1</text>
<line class="y-tick" x1="50.00" y1="343.22" x2="45.00" y2="343.22" stroke="#000" />
<text class="tick-label tick-label-y" x="43.00" y="343.22" text-anchor="end" dominant-baseline="middle" font-size="10" fill="#000">0</text>
<line class="y-tick" x1="50.00" y1="264.58" x2="45.00" y2="264.58" stroke="#000" />
<text class="tick-label tick-label-y" x="43.00" y="264.58" text-anchor="end" dominant-baseline="middle" font-size="10" fill="#000">1</text>
<line class="y-tick" x1="50.00" y1="185.94" x2="45.00" y2="185.94" stroke="#000" />
<text class="tick-label tick-label-y" x="43.00" y="185.94" text-anchor="end" dominant-baseline="middle" font-size="10" fill="#000">2</text>
<line class="y-tick" x1="50.00" y1="107.30" x2="45.00" y2="107.30" stroke="#000" />
<text class="tick-label tick-label-y" x="43.00" y="107.30" text-anchor="end" dominant-baseline="middle" font-size="10" fill="#000">3</text>
<text x="400" y="40" text-anchor="middle" font-size="14" font-weight="bold" fill="#000">User Clusters (PCA Projection)</text>
<text x="400" y="585" text-anchor="middle" font-size="12" fill="#000">PC1</text>
<text x="15" y="300" text-anchor="middle" font-size="12" fill="#000" transform="rotate(-90 15 300)">PC2</text>
</svg>