<?xml version="1.0" encoding="UTF-8"?>
<svg xmlns="http://www.w3.org/2000/svg" width="800" height="600" viewBox="0 0 800 600">
<rect x="0" y="0" width="800" height="600" fill="#ffffff" />
<rect x="50" y="50" width="700" height="500" fill="#ffffff" stroke="#000" />
<rect x="81.82" y="523.60" width="9.11" height="3.67" fill="#9c27b0" stroke="#000000" />
<rect x="94.62" y="519.93" width="9.11" height="7.34" fill="#9c27b0" stroke="#000000" />
<rect x="107.42" y="520.66" width="9.11" height="6.61" fill="#9c27b0" stroke="#000000" />
<rect x="120.22" y="512.59" width="9.11" height="14.69" fill="#9c27b0" stroke="#000000" />
<rect x="133.02" y="500.84" width="9.11" height="26.44" fill="#9c27b0" stroke="#000000" />
<rect x="145.82" y="499.37" width="9.11" height="27.90" fill="#9c27b0" stroke="#000000" />
<rect x="158.63" y="478.81" width="9.11" height="48.47" fill="#9c27b0" stroke="#000000" />
<rect x="171.43" y="450.90" width="9.11" height="76.37" fill="#9c27b0" stroke="#000000" />
<rect x="184.23" y="403.91" width="9.11" height="123.37" fill="#9c27b0" stroke="#000000" />
<rect x="197.03" y="347.36" width="9.11" height="179.91" fill="#9c27b0" stroke="#000000" />
<rect x="209.83" y="293.02" width="9.11" height="234.25" fill="#9c27b0" stroke="#000000" />
<rect x="222.63" y="296.70" width="9.11" height="230.58" fill="#9c27b0" stroke="#000000" />
<rect x="235.43" y="248.23" width="9.11" height="279.04" fill="#9c27b0" stroke="#000000" />
<rect x="248.23" y="212.25" width="9.11" height="315.02" fill="#9c27b0" stroke="#000000" />
<rect x="261.03" y="168.92" width="9.11" height="358.35" fill="#9c27b0" stroke="#000000" />
<rect x="273.84" y="121.93" width="9.11" height="405.35" fill="#9c27b0" stroke="#000000" />
<rect x="286.64" y="72.73" width="9.11" height="454.55" fill="#9c27b0" stroke="#000000" />
<rect x="299.44" y="76.40" width="9.11" height="450.87" fill="#9c27b0" stroke="#000000" />
<rect x="312.24" y="110.91" width="9.11" height="416.36" fill="#9c27b0" stroke="#000000" />
<rect x="325.04" y="85.95" width="9.11" height="441.33" fill="#9c27b0" stroke="#000000" />
<rect x="337.84" y="117.52" width="9.11" height="409.75" fill="#9c27b0" stroke="#000000" />
<rect x="350.64" y="136.61" width="9.11" height="390.66" fill="#9c27b0" stroke="#000000" />
<rect x="363.44" y="146.16" width="9.11" height="381.11" fill="#9c27b0" stroke="#000000" />
<rect x="376.25" y="225.47" width="9.11" height="301.81" fill="#9c27b0" stroke="#000000" />
<rect x="389.05" y="225.47" width="9.11" height="301.81" fill="#9c27b0" stroke="#000000" />
<rect x="401.85" y="271.73" width="9.11" height="255.54" fill="#9c27b0" stroke="#000000" />
<rect x="414.65" y="358.38" width="9.11" height="168.89" fill="#9c27b0" stroke="#000000" />
<rect x="427.45" y="356.18" width="9.11" height="171.10" fill="#9c27b0" stroke="#000000" />
<rect x="440.25" y="367.19" width="9.11" height="160.08" fill="#9c27b0" stroke="#000000" />
<rect x="453.05" y="373.80" width="9.11" height="153.47" fill="#9c27b0" stroke="#000000" />
<rect x="465.85" y="421.53" width="9.11" height="105.74" fill="#9c27b0" stroke="#000000" />
<rect x="478.66" y="419.33" width="9.11" height="107.95" fill="#9c27b0" stroke="#000000" />
<rect x="491.46" y="447.97" width="9.11" height="79.31" fill="#9c27b0" stroke="#000000" />
<rect x="504.26" y="465.59" width="9.11" height="61.68" fill="#9c27b0" stroke="#000000" />
<rect x="517.06" y="475.14" width="9.11" height="52.14" fill="#9c27b0" stroke="#000000" />
<rect x="529.86" y="497.17" width="9.11" height="30.11" fill="#9c27b0" stroke="#000000" />
<rect x="542.66" y="492.76" width="9.11" height="34.51" fill="#9c27b0" stroke="#000000" />
<rect x="555.46" y="500.10" width="9.11" height="27.17" fill="#9c27b0" stroke="#000000" />
<rect x="568.26" y="508.18" width="9.11" height="19.09" fill="#9c27b0" stroke="#000000" />
<rect x="581.06" y="518.46" width="9.11" height="8.81" fill="#9c27b0" stroke="#000000" />
<rect x="593.87" y="516.99" width="9.11" height="10.28" fill="#9c27b0" stroke="#000000" />
<rect x="606.67" y="524.34" width="9.11" height="2.94" fill="#9c27b0" stroke="#000000" />
<rect x="619.47" y="524.34" width="9.11" height="2.94" fill="#9c27b0" stroke="#000000" />
<rect x="632.27" y="527.27" width="9.11" height="0.00" fill="#9c27b0" stroke="#000000" />
<rect x="645.07" y="525.80" width="9.11" height="1.47" fill="#9c27b0" stroke="#000000" />
<rect x="657.87" y="527.27" width="9.11" height="0.00" fill="#9c27b0" stroke="#000000" />
<rect x="670.67" y="524.34" width="9.11" height="2.94" fill="#9c27b0" stroke="#000000" />
<rect x="683.47" y="527.27" width="9.11" height="0.00" fill="#9c27b0" stroke="#000000" />
<rect x="696.28" y="527.27" width="9.11" height="0.00" fill="#9c27b0" stroke="#000000" />
<rect x="709.08" y="527.27" width="9.11" height="0.00" fill="#9c27b0" stroke="#000000" />
<line class="x-tick" x1="132.14" y1="550.00" x2="132.14" y2="555.00" stroke="#000" />
<text class="tick-label tick-label-x" x="132.14" y="557.00" text-anchor="middle" dominant-baseline="hanging" font-size="10" fill="#000">0</text>
<line class="x-tick" x1="245.95" y1="550.00" x2="245.95" y2="555.00" stroke="#000" />
<text class="tick-label tick-label-x" x="245.95" y="557.00" text-anchor="middle" dominant-baseline="hanging" font-size="10" fill="#000">10</text>
<line class="x-tick" x1="359.77" y1="550.00" x2="359.77" y2="555.00" stroke="#000" />
<text class="tick-label tick-label-x" x="359.77" y="557.00" text-anchor="middle" dominant-baseline="hanging" font-size="10" fill="#000">20</text>
<line class="x-tick" x1="473.58" y1="550.00" x2="473.58" y2="555.00" stroke="#000" />
<text class="tick-label tick-label-x" x="473.58" y="557.00" text-anchor="middle" dominant-baseline="hanging" font-size="10" fill="#000">30</text>
<line class="x-tick" x1="587.40" y1="550.00" x2="587.40" y2="555.00" stroke="#000" />
<text class="tick-label tick-label-x" x="587.40" y="557.00" text-anchor="middle" dominant-baseline="hanging" font-size="10" fill="#000">40</text>
<line class="x-tick" x1="701.21" y1="550.00" x2="701.21" y2="555.00" stroke="#000" />
<text class="tick-label tick-label-x" x="701.21" y="557.00" text-anchor="middle" dominant-baseline="hanging" font-size="10" fill="#000">50</text>
<line class="y-tick" x1="50.00" y1="527.27" x2="45.00" y2="527.27" stroke="#000" />
<text class="tick-label tick-label-y" x="43.00" y="527.27" text-anchor="end" dominant-baseline="middle" font-size="10" fill="#000">0</text>
<line class="y-tick" x1="50.00" y1="453.84" x2="45.00" y2="453.84" stroke="#000" />
<text class="tick-label tick-label-y" x="43.00" y="453.84" text-anchor="end" dominant-baseline="middle" font-size="10" fill="#000">100</text>
<line class="y-tick" x1="50.00" y1="380.41" x2="45.00" y2="380.41" stroke="#000" />
<text class="tick-label tick-label-y" x="43.00" y="380.41" text-anchor="end" dominant-baseline="middle" font-size="10" fill="#000">200</text>
<line class="y-tick" x1="50.00" y1="306.98" x2="45.00" y2="306.98" stroke="#000" />
<text class="tick-label tick-label-y" x="43.00" y="306.98" text-anchor="end" dominant-baseline="middle" font-size="10" fill="#000">300</text>
<line class="y-tick" x1="50.00" y1="233.54" x2="45.00" y2="233.54" stroke="#000" />
<text class="tick-label tick-label-y" x="43.00" y="233.54" text-anchor="end" dominant-baseline="middle" font-size="10" fill="#000">400</text>
<line class="y-tick" x1="50.00" y1="160.11" x2="45.00" y2="160.11" stroke="#000" />
<text class="tick-label tick-label-y" x="43.00" y="160.11" text-anchor="end" dominant-baseline="middle" font-size="10" fill="#000">500</text>
<line class="y-tick" x1="50.00" y1="86.68" x2="45.00" y2="86.68" stroke="#000" />
<text class="tick-label tick-label-y" x="43.00" y="86.68" text-anchor="end" dominant-baseline="middle" font-size="10" fill="#000">600</text>
<text x="400" y="40" text-anchor="middle" font-size="14" font-weight="bold" fill="#000">Monte Carlo Return Distribution</text>
<text x="400" y="585" text-anchor="middle" font-size="12" fill="#000">Return (%)</text>
<text x="15" y="300" text-anchor="middle" font-size="12" fill="#000" transform="rotate(-90 15 300)">Frequency</text>
</svg>