<?xml version="1.0" encoding="UTF-8"?>
<svg xmlns="http://www.w3.org/2000/svg" width="640" height="480" viewBox="0 0 640 480">
<rect x="0" y="0" width="640" height="480" fill="#ffffff" />
<rect x="50" y="50" width="540" height="380" fill="#ffffff" stroke="#000" />
<rect x="74.55" y="395.45" width="24.55" height="17.27" fill="rgb(253,231,37)" />
<rect x="99.09" y="395.45" width="24.55" height="17.27" fill="rgb(253,231,37)" />
<rect x="123.64" y="395.45" width="24.55" height="17.27" fill="rgb(253,231,37)" />
<rect x="148.18" y="395.45" width="24.55" height="17.27" fill="rgb(253,231,37)" />
<rect x="172.73" y="395.45" width="24.55" height="17.27" fill="rgb(253,231,37)" />
<rect x="197.27" y="395.45" width="24.55" height="17.27" fill="rgb(253,231,37)" />
<rect x="221.82" y="395.45" width="24.55" height="17.27" fill="rgb(253,231,37)" />
<rect x="246.36" y="395.45" width="24.55" height="17.27" fill="rgb(253,231,37)" />
<rect x="270.91" y="395.45" width="24.55" height="17.27" fill="rgb(253,231,37)" />
<rect x="295.45" y="395.45" width="24.55" height="17.27" fill="rgb(253,231,37)" />
<rect x="320.00" y="395.45" width="24.55" height="17.27" fill="rgb(253,231,37)" />
<rect x="344.55" y="395.45" width="24.55" height="17.27" fill="rgb(253,231,37)" />
<rect x="369.09" y="395.45" width="24.55" height="17.27" fill="rgb(253,231,37)" />
<rect x="393.64" y="395.45" width="24.55" height="17.27" fill="rgb(253,231,37)" />
<rect x="418.18" y="395.45" width="24.55" height="17.27" fill="rgb(253,231,37)" />
<rect x="442.73" y="395.45" width="24.55" height="17.27" fill="rgb(253,231,37)" />
<rect x="467.27" y="395.45" width="24.55" height="17.27" fill="rgb(253,231,37)" />
<rect x="491.82" y="395.45" width="24.55" height="17.27" fill="rgb(253,231,37)" />
<rect x="516.36" y="395.45" width="24.55" height="17.27" fill="rgb(253,231,37)" />
<rect x="540.91" y="395.45" width="24.55" height="17.27" fill="rgb(253,231,37)" />
<rect x="74.55" y="378.18" width="24.55" height="17.27" fill="rgb(253,231,37)" />
<rect x="99.09" y="378.18" width="24.55" height="17.27" fill="rgb(253,231,37)" />
<rect x="123.64" y="378.18" width="24.55" height="17.27" fill="rgb(253,231,37)" />
<rect x="148.18" y="378.18" width="24.55" height="17.27" fill="rgb(253,231,37)" />
<rect x="172.73" y="378.18" width="24.55" height="17.27" fill="rgb(253,231,37)" />
<rect x="197.27" y="378.18" width="24.55" height="17.27" fill="rgb(253,231,37)" />
<rect x="221.82" y="378.18" width="24.55" height="17.27" fill="rgb(253,231,37)" />
<rect x="246.36" y="378.18" width="24.55" height="17.27" fill="rgb(253,231,37)" />
<rect x="270.91" y="378.18" width="24.55" height="17.27" fill="rgb(253,231,37)" />
<rect x="295.45" y="378.18" width="24.55" height="17.27" fill="rgb(253,231,37)" />
<rect x="320.00" y="378.18" width="24.55" height="17.27" fill="rgb(253,231,37)" />
<rect x="344.55" y="378.18" width="24.55" height="17.27" fill="rgb(253,231,37)" />
<rect x="369.09" y="378.18" width="24.55" height="17.27" fill="rgb(253,231,37)" />
<rect x="393.64" y="378.18" width="24.55" height="17.27" fill="rgb(253,231,37)" />
<rect x="418.18" y="378.18" width="24.55" height="17.27" fill="rgb(253,231,37)" />
<rect x="442.73" y="378.18" width="24.55" height="17.27" fill="rgb(253,231,37)" />
<rect x="467.27" y="378.18" width="24.55" height="17.27" fill="rgb(253,231,37)" />
<rect x="491.82" y="378.18" width="24.55" height="17.27" fill="rgb(253,231,37)" />
<rect x="516.36" y="378.18" width="24.55" height="17.27" fill="rgb(253,231,37)" />
<rect x="540.91" y="378.18" width="24.55" height="17.27" fill="rgb(253,231,37)" />
<rect x="74.55" y="360.91" width="24.55" height="17.27" fill="rgb(253,231,37)" />
<rect x="99.09" y="360.91" width="24.55" height="17.27" fill="rgb(253,231,37)" />
<rect x="123.64" y="360.91" width="24.55" height="17.27" fill="rgb(253,231,37)" />
<rect x="148.18" y="360.91" width="24.55" height="17.27" fill="rgb(253,231,37)" />
<rect x="172.73" y="360.91" width="24.55" height="17.27" fill="rgb(253,231,37)" />
<rect x="197.27" y="360.91" width="24.55" height="17.27" fill="rgb(253,231,37)" />
<rect x="221.82" y="360.91" width="24.55" height="17.27" fill="rgb(253,231,37)" />
<rect x="246.36" y="360.91" width="24.55" height="17.27" fill="rgb(253,231,37)" />
<rect x="270.91" y="360.91" width="24.55" height="17.27" fill="rgb(253,231,37)" />
<rect x="295.45" y="360.91" width="24.55" height="17.27" fill="rgb(253,231,37)" />
<rect x="320.00" y="360.91" width="24.55" height="17.27" fill="rgb(253,231,37)" />
<rect x="344.55" y="360.91" width="24.55" height="17.27" fill="rgb(253,231,37)" />
<rect x="369.09" y="360.91" width="24.55" height="17.27" fill="rgb(253,231,37)" />
<rect x="393.64" y="360.91" width="24.55" height="17.27" fill="rgb(253,231,37)" />
<rect x="418.18" y="360.91" width="24.55" height="17.27" fill="rgb(253,231,37)" />
<rect x="442.73" y="360.91" width="24.55" height="17.27" fill="rgb(253,231,37)" />
<rect x="467.27" y="360.91" width="24.55" height="17.27" fill="rgb(253,231,37)" />
<rect x="491.82" y="360.91" width="24.55" height="17.27" fill="rgb(253,231,37)" />
<rect x="516.36" y="360.91" width="24.55" height="17.27" fill="rgb(253,231,37)" />
<rect x="540.91" y="360.91" width="24.55" height="17.27" fill="rgb(253,231,37)" />
<rect x="74.55" y="343.64" width="24.55" height="17.27" fill="rgb(253,231,37)" />
<rect x="99.09" y="343.64" width="24.55" height="17.27" fill="rgb(253,231,37)" />
<rect x="123.64" y="343.64" width="24.55" height="17.27" fill="rgb(253,231,37)" />
<rect x="148.18" y="343.64" width="24.55" height="17.27" fill="rgb(253,231,37)" />
<rect x="172.73" y="343.64" width="24.55" height="17.27" fill="rgb(253,231,37)" />
<rect x="197.27" y="343.64" width="24.55" height="17.27" fill="rgb(253,231,37)" />
<rect x="221.82" y="343.64" width="24.55" height="17.27" fill="rgb(253,231,37)" />
<rect x="246.36" y="343.64" width="24.55" height="17.27" fill="rgb(253,231,37)" />
<rect x="270.91" y="343.64" width="24.55" height="17.27" fill="rgb(253,231,37)" />
<rect x="295.45" y="343.64" width="24.55" height="17.27" fill="rgb(253,231,37)" />
<rect x="320.00" y="343.64" width="24.55" height="17.27" fill="rgb(253,231,37)" />
<rect x="344.55" y="343.64" width="24.55" height="17.27" fill="rgb(253,231,37)" />
<rect x="369.09" y="343.64" width="24.55" height="17.27" fill="rgb(253,231,37)" />
<rect x="393.64" y="343.64" width="24.55" height="17.27" fill="rgb(253,231,37)" />
<rect x="418.18" y="343.64" width="24.55" height="17.27" fill="rgb(253,231,37)" />
<rect x="442.73" y="343.64" width="24.55" height="17.27" fill="rgb(253,231,37)" />
<rect x="467.27" y="343.64" width="24.55" height="17.27" fill="rgb(253,231,37)" />
<rect x="491.82" y="343.64" width="24.55" height="17.27" fill="rgb(253,231,37)" />
<rect x="516.36" y="343.64" width="24.55" height="17.27" fill="rgb(253,231,37)" />
<rect x="540.91" y="343.64" width="24.55" height="17.27" fill="rgb(253,231,37)" />
<rect x="74.55" y="326.36" width="24.55" height="17.27" fill="rgb(253,231,37)" />
<rect x="99.09" y="326.36" width="24.55" height="17.27" fill="rgb(253,231,37)" />
<rect x="123.64" y="326.36" width="24.55" height="17.27" fill="rgb(253,231,37)" />
<rect x="148.18" y="326.36" width="24.55" height="17.27" fill="rgb(253,231,37)" />
<rect x="172.73" y="326.36" width="24.55" height="17.27" fill="rgb(253,231,37)" />
<rect x="197.27" y="326.36" width="24.55" height="17.27" fill="rgb(253,231,37)" />
<rect x="221.82" y="326.36" width="24.55" height="17.27" fill="rgb(253,231,37)" />
<rect x="246.36" y="326.36" width="24.55" height="17.27" fill="rgb(253,231,37)" />
<rect x="270.91" y="326.36" width="24.55" height="17.27" fill="rgb(253,231,37)" />
<rect x="295.45" y="326.36" width="24.55" height="17.27" fill="rgb(253,231,37)" />
<rect x="320.00" y="326.36" width="24.55" height="17.27" fill="rgb(253,231,37)" />
<rect x="344.55" y="326.36" width="24.55" height="17.27" fill="rgb(253,231,37)" />
<rect x="369.09" y="326.36" width="24.55" height="17.27" fill="rgb(253,231,37)" />
<rect x="393.64" y="326.36" width="24.55" height="17.27" fill="rgb(253,231,37)" />
<rect x="418.18" y="326.36" width="24.55" height="17.27" fill="rgb(253,231,37)" />
<rect x="442.73" y="326.36" width="24.55" height="17.27" fill="rgb(253,231,37)" />
<rect x="467.27" y="326.36" width="24.55" height="17.27" fill="rgb(253,231,37)" />
<rect x="491.82" y="326.36" width="24.55" height="17.27" fill="rgb(253,231,37)" />
<rect x="516.36" y="326.36" width="24.55" height="17.27" fill="rgb(253,231,37)" />
<rect x="540.91" y="326.36" width="24.55" height="17.27" fill="rgb(253,231,37)" />
<rect x="74.55" y="309.09" width="24.55" height="17.27" fill="rgb(253,231,37)" />
<rect x="99.09" y="309.09" width="24.55" height="17.27" fill="rgb(253,231,37)" />
<rect x="123.64" y="309.09" width="24.55" height="17.27" fill="rgb(253,231,37)" />
<rect x="148.18" y="309.09" width="24.55" height="17.27" fill="rgb(253,231,37)" />
<rect x="172.73" y="309.09" width="24.55" height="17.27" fill="rgb(253,231,37)" />
<rect x="197.27" y="309.09" width="24.55" height="17.27" fill="rgb(253,231,37)" />
<rect x="221.82" y="309.09" width="24.55" height="17.27" fill="rgb(253,231,37)" />
<rect x="246.36" y="309.09" width="24.55" height="17.27" fill="rgb(253,231,37)" />
<rect x="270.91" y="309.09" width="24.55" height="17.27" fill="rgb(253,231,37)" />
<rect x="295.45" y="309.09" width="24.55" height="17.27" fill="rgb(253,231,37)" />
<rect x="320.00" y="309.09" width="24.55" height="17.27" fill="rgb(253,231,37)" />
<rect x="344.55" y="309.09" width="24.55" height="17.27" fill="rgb(253,231,37)" />
<rect x="369.09" y="309.09" width="24.55" height="17.27" fill="rgb(253,231,37)" />
<rect x="393.64" y="309.09" width="24.55" height="17.27" fill="rgb(253,231,37)" />
<rect x="418.18" y="309.09" width="24.55" height="17.27" fill="rgb(253,231,37)" />
<rect x="442.73" y="309.09" width="24.55" height="17.27" fill="rgb(253,231,37)" />
<rect x="467.27" y="309.09" width="24.55" height="17.27" fill="rgb(253,231,37)" />
<rect x="491.82" y="309.09" width="24.55" height="17.27" fill="rgb(253,231,37)" />
<rect x="516.36" y="309.09" width="24.55" height="17.27" fill="rgb(253,231,37)" />
<rect x="540.91" y="309.09" width="24.55" height="17.27" fill="rgb(253,231,37)" />
<rect x="74.55" y="291.82" width="24.55" height="17.27" fill="rgb(253,231,37)" />
<rect x="99.09" y="291.82" width="24.55" height="17.27" fill="rgb(253,231,37)" />
<rect x="123.64" y="291.82" width="24.55" height="17.27" fill="rgb(253,231,37)" />
<rect x="148.18" y="291.82" width="24.55" height="17.27" fill="rgb(253,231,37)" />
<rect x="172.73" y="291.82" width="24.55" height="17.27" fill="rgb(253,231,37)" />
<rect x="197.27" y="291.82" width="24.55" height="17.27" fill="rgb(253,231,37)" />
<rect x="221.82" y="291.82" width="24.55" height="17.27" fill="rgb(253,231,37)" />
<rect x="246.36" y="291.82" width="24.55" height="17.27" fill="rgb(253,231,37)" />
<rect x="270.91" y="291.82" width="24.55" height="17.27" fill="rgb(253,231,37)" />
<rect x="295.45" y="291.82" width="24.55" height="17.27" fill="rgb(253,231,37)" />
<rect x="320.00" y="291.82" width="24.55" height="17.27" fill="rgb(253,231,37)" />
<rect x="344.55" y="291.82" width="24.55" height="17.27" fill="rgb(253,231,37)" />
<rect x="369.09" y="291.82" width="24.55" height="17.27" fill="rgb(253,231,37)" />
<rect x="393.64" y="291.82" width="24.55" height="17.27" fill="rgb(253,231,37)" />
<rect x="418.18" y="291.82" width="24.55" height="17.27" fill="rgb(253,231,37)" />
<rect x="442.73" y="291.82" width="24.55" height="17.27" fill="rgb(253,231,37)" />
<rect x="467.27" y="291.82" width="24.55" height="17.27" fill="rgb(253,231,37)" />
<rect x="491.82" y="291.82" width="24.55" height="17.27" fill="rgb(253,231,37)" />
<rect x="516.36" y="291.82" width="24.55" height="17.27" fill="rgb(253,231,37)" />
<rect x="540.91" y="291.82" width="24.55" height="17.27" fill="rgb(253,231,37)" />
<rect x="74.55" y="274.55" width="24.55" height="17.27" fill="rgb(253,231,37)" />
<rect x="99.09" y="274.55" width="24.55" height="17.27" fill="rgb(253,231,37)" />
<rect x="123.64" y="274.55" width="24.55" height="17.27" fill="rgb(253,231,37)" />
<rect x="148.18" y="274.55" width="24.55" height="17.27" fill="rgb(253,231,37)" />
<rect x="172.73" y="274.55" width="24.55" height="17.27" fill="rgb(253,231,37)" />
<rect x="197.27" y="274.55" width="24.55" height="17.27" fill="rgb(253,231,37)" />
<rect x="221.82" y="274.55" width="24.55" height="17.27" fill="rgb(253,231,37)" />
<rect x="246.36" y="274.55" width="24.55" height="17.27" fill="rgb(253,231,37)" />
<rect x="270.91" y="274.55" width="24.55" height="17.27" fill="rgb(253,231,37)" />
<rect x="295.45" y="274.55" width="24.55" height="17.27" fill="rgb(253,231,37)" />
<rect x="320.00" y="274.55" width="24.55" height="17.27" fill="rgb(253,231,37)" />
<rect x="344.55" y="274.55" width="24.55" height="17.27" fill="rgb(253,231,37)" />
<rect x="369.09" y="274.55" width="24.55" height="17.27" fill="rgb(253,231,37)" />
<rect x="393.64" y="274.55" width="24.55" height="17.27" fill="rgb(253,231,37)" />
<rect x="418.18" y="274.55" width="24.55" height="17.27" fill="rgb(253,231,37)" />
<rect x="442.73" y="274.55" width="24.55" height="17.27" fill="rgb(253,231,37)" />
<rect x="467.27" y="274.55" width="24.55" height="17.27" fill="rgb(253,231,37)" />
<rect x="491.82" y="274.55" width="24.55" height="17.27" fill="rgb(253,231,37)" />
<rect x="516.36" y="274.55" width="24.55" height="17.27" fill="rgb(253,231,37)" />
<rect x="540.91" y="274.55" width="24.55" height="17.27" fill="rgb(253,231,37)" />
<rect x="74.55" y="257.27" width="24.55" height="17.27" fill="rgb(253,231,37)" />
<rect x="99.09" y="257.27" width="24.55" height="17.27" fill="rgb(253,231,37)" />
<rect x="123.64" y="257.27" width="24.55" height="17.27" fill="rgb(253,231,37)" />
<rect x="148.18" y="257.27" width="24.55" height="17.27" fill="rgb(253,231,37)" />
<rect x="172.73" y="257.27" width="24.55" height="17.27" fill="rgb(253,231,37)" />
<rect x="197.27" y="257.27" width="24.55" height="17.27" fill="rgb(253,231,37)" />
<rect x="221.82" y="257.27" width="24.55" height="17.27" fill="rgb(253,231,37)" />
<rect x="246.36" y="257.27" width="24.55" height="17.27" fill="rgb(253,231,37)" />
<rect x="270.91" y="257.27" width="24.55" height="17.27" fill="rgb(253,231,37)" />
<rect x="295.45" y="257.27" width="24.55" height="17.27" fill="rgb(253,231,37)" />
<rect x="320.00" y="257.27" width="24.55" height="17.27" fill="rgb(253,231,37)" />
<rect x="344.55" y="257.27" width="24.55" height="17.27" fill="rgb(253,231,37)" />
<rect x="369.09" y="257.27" width="24.55" height="17.27" fill="rgb(253,231,37)" />
<rect x="393.64" y="257.27" width="24.55" height="17.27" fill="rgb(253,231,37)" />
<rect x="418.18" y="257.27" width="24.55" height="17.27" fill="rgb(253,231,37)" />
<rect x="442.73" y="257.27" width="24.55" height="17.27" fill="rgb(253,231,37)" />
<rect x="467.27" y="257.27" width="24.55" height="17.27" fill="rgb(253,231,37)" />
<rect x="491.82" y="257.27" width="24.55" height="17.27" fill="rgb(253,231,37)" />
<rect x="516.36" y="257.27" width="24.55" height="17.27" fill="rgb(253,231,37)" />
<rect x="540.91" y="257.27" width="24.55" height="17.27" fill="rgb(253,231,37)" />
<rect x="74.55" y="240.00" width="24.55" height="17.27" fill="rgb(253,231,37)" />
<rect x="99.09" y="240.00" width="24.55" height="17.27" fill="rgb(253,231,37)" />
<rect x="123.64" y="240.00" width="24.55" height="17.27" fill="rgb(253,231,37)" />
<rect x="148.18" y="240.00" width="24.55" height="17.27" fill="rgb(253,231,37)" />
<rect x="172.73" y="240.00" width="24.55" height="17.27" fill="rgb(253,231,37)" />
<rect x="197.27" y="240.00" width="24.55" height="17.27" fill="rgb(253,231,37)" />
<rect x="221.82" y="240.00" width="24.55" height="17.27" fill="rgb(253,231,37)" />
<rect x="246.36" y="240.00" width="24.55" height="17.27" fill="rgb(253,231,37)" />
<rect x="270.91" y="240.00" width="24.55" height="17.27" fill="rgb(253,231,37)" />
<rect x="295.45" y="240.00" width="24.55" height="17.27" fill="rgb(253,231,37)" />
<rect x="320.00" y="240.00" width="24.55" height="17.27" fill="rgb(253,231,37)" />
<rect x="344.55" y="240.00" width="24.55" height="17.27" fill="rgb(253,231,37)" />
<rect x="369.09" y="240.00" width="24.55" height="17.27" fill="rgb(253,231,37)" />
<rect x="393.64" y="240.00" width="24.55" height="17.27" fill="rgb(253,231,37)" />
<rect x="418.18" y="240.00" width="24.55" height="17.27" fill="rgb(253,231,37)" />
<rect x="442.73" y="240.00" width="24.55" height="17.27" fill="rgb(253,231,37)" />
<rect x="467.27" y="240.00" width="24.55" height="17.27" fill="rgb(253,231,37)" />
<rect x="491.82" y="240.00" width="24.55" height="17.27" fill="rgb(253,231,37)" />
<rect x="516.36" y="240.00" width="24.55" height="17.27" fill="rgb(253,231,37)" />
<rect x="540.91" y="240.00" width="24.55" height="17.27" fill="rgb(253,231,37)" />
<rect x="74.55" y="222.73" width="24.55" height="17.27" fill="rgb(253,231,37)" />
<rect x="99.09" y="222.73" width="24.55" height="17.27" fill="rgb(253,231,37)" />
<rect x="123.64" y="222.73" width="24.55" height="17.27" fill="rgb(253,231,37)" />
<rect x="148.18" y="222.73" width="24.55" height="17.27" fill="rgb(253,231,37)" />
<rect x="172.73" y="222.73" width="24.55" height="17.27" fill="rgb(253,231,37)" />
<rect x="197.27" y="222.73" width="24.55" height="17.27" fill="rgb(253,231,37)" />
<rect x="221.82" y="222.73" width="24.55" height="17.27" fill="rgb(253,231,37)" />
<rect x="246.36" y="222.73" width="24.55" height="17.27" fill="rgb(253,231,37)" />
<rect x="270.91" y="222.73" width="24.55" height="17.27" fill="rgb(253,231,37)" />
<rect x="295.45" y="222.73" width="24.55" height="17.27" fill="rgb(253,231,37)" />
<rect x="320.00" y="222.73" width="24.55" height="17.27" fill="rgb(253,231,37)" />
<rect x="344.55" y="222.73" width="24.55" height="17.27" fill="rgb(253,231,37)" />
<rect x="369.09" y="222.73" width="24.55" height="17.27" fill="rgb(253,231,37)" />
<rect x="393.64" y="222.73" width="24.55" height="17.27" fill="rgb(253,231,37)" />
<rect x="418.18" y="222.73" width="24.55" height="17.27" fill="rgb(253,231,37)" />
<rect x="442.73" y="222.73" width="24.55" height="17.27" fill="rgb(253,231,37)" />
<rect x="467.27" y="222.73" width="24.55" height="17.27" fill="rgb(253,231,37)" />
<rect x="491.82" y="222.73" width="24.55" height="17.27" fill="rgb(253,231,37)" />
<rect x="516.36" y="222.73" width="24.55" height="17.27" fill="rgb(253,231,37)" />
<rect x="540.91" y="222.73" width="24.55" height="17.27" fill="rgb(253,231,37)" />
<rect x="74.55" y="205.45" width="24.55" height="17.27" fill="rgb(253,231,37)" />
<rect x="99.09" y="205.45" width="24.55" height="17.27" fill="rgb(253,231,37)" />
<rect x="123.64" y="205.45" width="24.55" height="17.27" fill="rgb(253,231,37)" />
<rect x="148.18" y="205.45" width="24.55" height="17.27" fill="rgb(253,231,37)" />
<rect x="172.73" y="205.45" width="24.55" height="17.27" fill="rgb(253,231,37)" />
<rect x="197.27" y="205.45" width="24.55" height="17.27" fill="rgb(253,231,37)" />
<rect x="221.82" y="205.45" width="24.55" height="17.27" fill="rgb(253,231,37)" />
<rect x="246.36" y="205.45" width="24.55" height="17.27" fill="rgb(253,231,37)" />
<rect x="270.91" y="205.45" width="24.55" height="17.27" fill="rgb(253,231,37)" />
<rect x="295.45" y="205.45" width="24.55" height="17.27" fill="rgb(253,231,37)" />
<rect x="320.00" y="205.45" width="24.55" height="17.27" fill="rgb(253,231,37)" />
<rect x="344.55" y="205.45" width="24.55" height="17.27" fill="rgb(253,231,37)" />
<rect x="369.09" y="205.45" width="24.55" height="17.27" fill="rgb(253,231,37)" />
<rect x="393.64" y="205.45" width="24.55" height="17.27" fill="rgb(253,231,37)" />
<rect x="418.18" y="205.45" width="24.55" height="17.27" fill="rgb(253,231,37)" />
<rect x="442.73" y="205.45" width="24.55" height="17.27" fill="rgb(253,231,37)" />
<rect x="467.27" y="205.45" width="24.55" height="17.27" fill="rgb(253,231,37)" />
<rect x="491.82" y="205.45" width="24.55" height="17.27" fill="rgb(253,231,37)" />
<rect x="516.36" y="205.45" width="24.55" height="17.27" fill="rgb(253,231,37)" />
<rect x="540.91" y="205.45" width="24.55" height="17.27" fill="rgb(253,231,37)" />
<rect x="74.55" y="188.18" width="24.55" height="17.27" fill="rgb(253,231,37)" />
<rect x="99.09" y="188.18" width="24.55" height="17.27" fill="rgb(253,231,37)" />
<rect x="123.64" y="188.18" width="24.55" height="17.27" fill="rgb(253,231,37)" />
<rect x="148.18" y="188.18" width="24.55" height="17.27" fill="rgb(253,231,37)" />
<rect x="172.73" y="188.18" width="24.55" height="17.27" fill="rgb(253,231,37)" />
<rect x="197.27" y="188.18" width="24.55" height="17.27" fill="rgb(253,231,37)" />
<rect x="221.82" y="188.18" width="24.55" height="17.27" fill="rgb(253,231,37)" />
<rect x="246.36" y="188.18" width="24.55" height="17.27" fill="rgb(253,231,37)" />
<rect x="270.91" y="188.18" width="24.55" height="17.27" fill="rgb(253,231,37)" />
<rect x="295.45" y="188.18" width="24.55" height="17.27" fill="rgb(253,231,37)" />
<rect x="320.00" y="188.18" width="24.55" height="17.27" fill="rgb(253,231,37)" />
<rect x="344.55" y="188.18" width="24.55" height="17.27" fill="rgb(253,231,37)" />
<rect x="369.09" y="188.18" width="24.55" height="17.27" fill="rgb(253,231,37)" />
<rect x="393.64" y="188.18" width="24.55" height="17.27" fill="rgb(253,231,37)" />
<rect x="418.18" y="188.18" width="24.55" height="17.27" fill="rgb(253,231,37)" />
<rect x="442.73" y="188.18" width="24.55" height="17.27" fill="rgb(253,231,37)" />
<rect x="467.27" y="188.18" width="24.55" height="17.27" fill="rgb(253,231,37)" />
<rect x="491.82" y="188.18" width="24.55" height="17.27" fill="rgb(253,231,37)" />
<rect x="516.36" y="188.18" width="24.55" height="17.27" fill="rgb(253,231,37)" />
<rect x="540.91" y="188.18" width="24.55" height="17.27" fill="rgb(253,231,37)" />
<rect x="74.55" y="170.91" width="24.55" height="17.27" fill="rgb(253,231,37)" />
<rect x="99.09" y="170.91" width="24.55" height="17.27" fill="rgb(253,231,37)" />
<rect x="123.64" y="170.91" width="24.55" height="17.27" fill="rgb(253,231,37)" />
<rect x="148.18" y="170.91" width="24.55" height="17.27" fill="rgb(253,231,37)" />
<rect x="172.73" y="170.91" width="24.55" height="17.27" fill="rgb(253,231,37)" />
<rect x="197.27" y="170.91" width="24.55" height="17.27" fill="rgb(253,231,37)" />
<rect x="221.82" y="170.91" width="24.55" height="17.27" fill="rgb(253,231,37)" />
<rect x="246.36" y="170.91" width="24.55" height="17.27" fill="rgb(253,231,37)" />
<rect x="270.91" y="170.91" width="24.55" height="17.27" fill="rgb(253,231,37)" />
<rect x="295.45" y="170.91" width="24.55" height="17.27" fill="rgb(253,231,37)" />
<rect x="320.00" y="170.91" width="24.55" height="17.27" fill="rgb(253,231,37)" />
<rect x="344.55" y="170.91" width="24.55" height="17.27" fill="rgb(253,231,37)" />
<rect x="369.09" y="170.91" width="24.55" height="17.27" fill="rgb(253,231,37)" />
<rect x="393.64" y="170.91" width="24.55" height="17.27" fill="rgb(253,231,37)" />
<rect x="418.18" y="170.91" width="24.55" height="17.27" fill="rgb(253,231,37)" />
<rect x="442.73" y="170.91" width="24.55" height="17.27" fill="rgb(253,231,37)" />
<rect x="467.27" y="170.91" width="24.55" height="17.27" fill="rgb(253,231,37)" />
<rect x="491.82" y="170.91" width="24.55" height="17.27" fill="rgb(253,231,37)" />
<rect x="516.36" y="170.91" width="24.55" height="17.27" fill="rgb(253,231,37)" />
<rect x="540.91" y="170.91" width="24.55" height="17.27" fill="rgb(253,231,37)" />
<rect x="74.55" y="153.64" width="24.55" height="17.27" fill="rgb(253,231,37)" />
<rect x="99.09" y="153.64" width="24.55" height="17.27" fill="rgb(253,231,37)" />
<rect x="123.64" y="153.64" width="24.55" height="17.27" fill="rgb(253,231,37)" />
<rect x="148.18" y="153.64" width="24.55" height="17.27" fill="rgb(253,231,37)" />
<rect x="172.73" y="153.64" width="24.55" height="17.27" fill="rgb(253,231,37)" />
<rect x="197.27" y="153.64" width="24.55" height="17.27" fill="rgb(253,231,37)" />
<rect x="221.82" y="153.64" width="24.55" height="17.27" fill="rgb(253,231,37)" />
<rect x="246.36" y="153.64" width="24.55" height="17.27" fill="rgb(253,231,37)" />
<rect x="270.91" y="153.64" width="24.55" height="17.27" fill="rgb(253,231,37)" />
<rect x="295.45" y="153.64" width="24.55" height="17.27" fill="rgb(253,231,37)" />
<rect x="320.00" y="153.64" width="24.55" height="17.27" fill="rgb(253,231,37)" />
<rect x="344.55" y="153.64" width="24.55" height="17.27" fill="rgb(253,231,37)" />
<rect x="369.09" y="153.64" width="24.55" height="17.27" fill="rgb(253,231,37)" />
<rect x="393.64" y="153.64" width="24.55" height="17.27" fill="rgb(253,231,37)" />
<rect x="418.18" y="153.64" width="24.55" height="17.27" fill="rgb(253,231,37)" />
<rect x="442.73" y="153.64" width="24.55" height="17.27" fill="rgb(253,231,37)" />
<rect x="467.27" y="153.64" width="24.55" height="17.27" fill="rgb(253,231,37)" />
<rect x="491.82" y="153.64" width="24.55" height="17.27" fill="rgb(253,231,37)" />
<rect x="516.36" y="153.64" width="24.55" height="17.27" fill="rgb(253,231,37)" />
<rect x="540.91" y="153.64" width="24.55" height="17.27" fill="rgb(253,231,37)" />
<rect x="74.55" y="136.36" width="24.55" height="17.27" fill="rgb(253,231,37)" />
<rect x="99.09" y="136.36" width="24.55" height="17.27" fill="rgb(253,231,37)" />
<rect x="123.64" y="136.36" width="24.55" height="17.27" fill="rgb(253,231,37)" />
<rect x="148.18" y="136.36" width="24.55" height="17.27" fill="rgb(253,231,37)" />
<rect x="172.73" y="136.36" width="24.55" height="17.27" fill="rgb(253,231,37)" />
<rect x="197.27" y="136.36" width="24.55" height="17.27" fill="rgb(253,231,37)" />
<rect x="221.82" y="136.36" width="24.55" height="17.27" fill="rgb(253,231,37)" />
<rect x="246.36" y="136.36" width="24.55" height="17.27" fill="rgb(253,231,37)" />
<rect x="270.91" y="136.36" width="24.55" height="17.27" fill="rgb(253,231,37)" />
<rect x="295.45" y="136.36" width="24.55" height="17.27" fill="rgb(253,231,37)" />
<rect x="320.00" y="136.36" width="24.55" height="17.27" fill="rgb(253,231,37)" />
<rect x="344.55" y="136.36" width="24.55" height="17.27" fill="rgb(253,231,37)" />
<rect x="369.09" y="136.36" width="24.55" height="17.27" fill="rgb(253,231,37)" />
<rect x="393.64" y="136.36" width="24.55" height="17.27" fill="rgb(253,231,37)" />
<rect x="418.18" y="136.36" width="24.55" height="17.27" fill="rgb(253,231,37)" />
<rect x="442.73" y="136.36" width="24.55" height="17.27" fill="rgb(253,231,37)" />
<rect x="467.27" y="136.36" width="24.55" height="17.27" fill="rgb(253,231,37)" />
<rect x="491.82" y="136.36" width="24.55" height="17.27" fill="rgb(253,231,37)" />
<rect x="516.36" y="136.36" width="24.55" height="17.27" fill="rgb(253,231,37)" />
<rect x="540.91" y="136.36" width="24.55" height="17.27" fill="rgb(253,231,37)" />
<rect x="74.55" y="119.09" width="24.55" height="17.27" fill="rgb(253,231,37)" />
<rect x="99.09" y="119.09" width="24.55" height="17.27" fill="rgb(253,231,37)" />
<rect x="123.64" y="119.09" width="24.55" height="17.27" fill="rgb(253,231,37)" />
<rect x="148.18" y="119.09" width="24.55" height="17.27" fill="rgb(253,231,37)" />
<rect x="172.73" y="119.09" width="24.55" height="17.27" fill="rgb(253,231,37)" />
<rect x="197.27" y="119.09" width="24.55" height="17.27" fill="rgb(253,231,37)" />
<rect x="221.82" y="119.09" width="24.55" height="17.27" fill="rgb(253,231,37)" />
<rect x="246.36" y="119.09" width="24.55" height="17.27" fill="rgb(253,231,37)" />
<rect x="270.91" y="119.09" width="24.55" height="17.27" fill="rgb(253,231,37)" />
<rect x="295.45" y="119.09" width="24.55" height="17.27" fill="rgb(253,231,37)" />
<rect x="320.00" y="119.09" width="24.55" height="17.27" fill="rgb(253,231,37)" />
<rect x="344.55" y="119.09" width="24.55" height="17.27" fill="rgb(253,231,37)" />
<rect x="369.09" y="119.09" width="24.55" height="17.27" fill="rgb(253,231,37)" />
<rect x="393.64" y="119.09" width="24.55" height="17.27" fill="rgb(253,231,37)" />
<rect x="418.18" y="119.09" width="24.55" height="17.27" fill="rgb(253,231,37)" />
<rect x="442.73" y="119.09" width="24.55" height="17.27" fill="rgb(253,231,37)" />
<rect x="467.27" y="119.09" width="24.55" height="17.27" fill="rgb(253,231,37)" />
<rect x="491.82" y="119.09" width="24.55" height="17.27" fill="rgb(253,231,37)" />
<rect x="516.36" y="119.09" width="24.55" height="17.27" fill="rgb(253,231,37)" />
<rect x="540.91" y="119.09" width="24.55" height="17.27" fill="rgb(253,231,37)" />
<rect x="74.55" y="101.82" width="24.55" height="17.27" fill="rgb(253,231,37)" />
<rect x="99.09" y="101.82" width="24.55" height="17.27" fill="rgb(253,231,37)" />
<rect x="123.64" y="101.82" width="24.55" height="17.27" fill="rgb(253,231,37)" />
<rect x="148.18" y="101.82" width="24.55" height="17.27" fill="rgb(253,231,37)" />
<rect x="172.73" y="101.82" width="24.55" height="17.27" fill="rgb(253,231,37)" />
<rect x="197.27" y="101.82" width="24.55" height="17.27" fill="rgb(253,231,37)" />
<rect x="221.82" y="101.82" width="24.55" height="17.27" fill="rgb(253,231,37)" />
<rect x="246.36" y="101.82" width="24.55" height="17.27" fill="rgb(253,231,37)" />
<rect x="270.91" y="101.82" width="24.55" height="17.27" fill="rgb(253,231,37)" />
<rect x="295.45" y="101.82" width="24.55" height="17.27" fill="rgb(253,231,37)" />
<rect x="320.00" y="101.82" width="24.55" height="17.27" fill="rgb(253,231,37)" />
<rect x="344.55" y="101.82" width="24.55" height="17.27" fill="rgb(253,231,37)" />
<rect x="369.09" y="101.82" width="24.55" height="17.27" fill="rgb(253,231,37)" />
<rect x="393.64" y="101.82" width="24.55" height="17.27" fill="rgb(253,231,37)" />
<rect x="418.18" y="101.82" width="24.55" height="17.27" fill="rgb(253,231,37)" />
<rect x="442.73" y="101.82" width="24.55" height="17.27" fill="rgb(253,231,37)" />
<rect x="467.27" y="101.82" width="24.55" height="17.27" fill="rgb(253,231,37)" />
<rect x="491.82" y="101.82" width="24.55" height="17.27" fill="rgb(253,231,37)" />
<rect x="516.36" y="101.82" width="24.55" height="17.27" fill="rgb(253,231,37)" />
<rect x="540.91" y="101.82" width="24.55" height="17.27" fill="rgb(253,231,37)" />
<rect x="74.55" y="84.55" width="24.55" height="17.27" fill="rgb(253,231,37)" />
<rect x="99.09" y="84.55" width="24.55" height="17.27" fill="rgb(253,231,37)" />
<rect x="123.64" y="84.55" width="24.55" height="17.27" fill="rgb(253,231,37)" />
<rect x="148.18" y="84.55" width="24.55" height="17.27" fill="rgb(253,231,37)" />
<rect x="172.73" y="84.55" width="24.55" height="17.27" fill="rgb(253,231,37)" />
<rect x="197.27" y="84.55" width="24.55" height="17.27" fill="rgb(253,231,37)" />
<rect x="221.82" y="84.55" width="24.55" height="17.27" fill="rgb(253,231,37)" />
<rect x="246.36" y="84.55" width="24.55" height="17.27" fill="rgb(253,231,37)" />
<rect x="270.91" y="84.55" width="24.55" height="17.27" fill="rgb(253,231,37)" />
<rect x="295.45" y="84.55" width="24.55" height="17.27" fill="rgb(253,231,37)" />
<rect x="320.00" y="84.55" width="24.55" height="17.27" fill="rgb(253,231,37)" />
<rect x="344.55" y="84.55" width="24.55" height="17.27" fill="rgb(253,231,37)" />
<rect x="369.09" y="84.55" width="24.55" height="17.27" fill="rgb(253,231,37)" />
<rect x="393.64" y="84.55" width="24.55" height="17.27" fill="rgb(253,231,37)" />
<rect x="418.18" y="84.55" width="24.55" height="17.27" fill="rgb(253,231,37)" />
<rect x="442.73" y="84.55" width="24.55" height="17.27" fill="rgb(253,231,37)" />
<rect x="467.27" y="84.55" width="24.55" height="17.27" fill="rgb(253,231,37)" />
<rect x="491.82" y="84.55" width="24.55" height="17.27" fill="rgb(253,231,37)" />
<rect x="516.36" y="84.55" width="24.55" height="17.27" fill="rgb(253,231,37)" />
<rect x="540.91" y="84.55" width="24.55" height="17.27" fill="rgb(253,231,37)" />
<rect x="74.55" y="67.27" width="24.55" height="17.27" fill="rgb(253,231,37)" />
<rect x="99.09" y="67.27" width="24.55" height="17.27" fill="rgb(253,231,37)" />
<rect x="123.64" y="67.27" width="24.55" height="17.27" fill="rgb(253,231,37)" />
<rect x="148.18" y="67.27" width="24.55" height="17.27" fill="rgb(253,231,37)" />
<rect x="172.73" y="67.27" width="24.55" height="17.27" fill="rgb(253,231,37)" />
<rect x="197.27" y="67.27" width="24.55" height="17.27" fill="rgb(253,231,37)" />
<rect x="221.82" y="67.27" width="24.55" height="17.27" fill="rgb(253,231,37)" />
<rect x="246.36" y="67.27" width="24.55" height="17.27" fill="rgb(253,231,37)" />
<rect x="270.91" y="67.27" width="24.55" height="17.27" fill="rgb(253,231,37)" />
<rect x="295.45" y="67.27" width="24.55" height="17.27" fill="rgb(253,231,37)" />
<rect x="320.00" y="67.27" width="24.55" height="17.27" fill="rgb(253,231,37)" />
<rect x="344.55" y="67.27" width="24.55" height="17.27" fill="rgb(253,231,37)" />
<rect x="369.09" y="67.27" width="24.55" height="17.27" fill="rgb(253,231,37)" />
<rect x="393.64" y="67.27" width="24.55" height="17.27" fill="rgb(253,231,37)" />
<rect x="418.18" y="67.27" width="24.55" height="17.27" fill="rgb(253,231,37)" />
<rect x="442.73" y="67.27" width="24.55" height="17.27" fill="rgb(253,231,37)" />
<rect x="467.27" y="67.27" width="24.55" height="17.27" fill="rgb(253,231,37)" />
<rect x="491.82" y="67.27" width="24.55" height="17.27" fill="rgb(253,231,37)" />
<rect x="516.36" y="67.27" width="24.55" height="17.27" fill="rgb(253,231,37)" />
<rect x="540.91" y="67.27" width="24.55" height="17.27" fill="rgb(253,231,37)" />
<line class="x-tick" x1="74.55" y1="430.00" x2="74.55" y2="435.00" stroke="#000" />
<text class="tick-label tick-label-x" x="74.55" y="437.00" text-anchor="middle" dominant-baseline="hanging" font-size="10" fill="#000">0</text>
<line class="x-tick" x1="197.27" y1="430.00" x2="197.27" y2="435.00" stroke="#000" />
<text class="tick-label tick-label-x" x="197.27" y="437.00" text-anchor="middle" dominant-baseline="hanging" font-size="10" fill="#000">5</text>
<line class="x-tick" x1="320.00" y1="430.00" x2="320.00" y2="435.00" stroke="#000" />
<text class="tick-label tick-label-x" x="320.00" y="437.00" text-anchor="middle" dominant-baseline="hanging" font-size="10" fill="#000">10</text>
<line class="x-tick" x1="442.73" y1="430.00" x2="442.73" y2="435.00" stroke="#000" />
<text class="tick-label tick-label-x" x="442.73" y="437.00" text-anchor="middle" dominant-baseline="hanging" font-size="10" fill="#000">15</text>
<line class="x-tick" x1="565.45" y1="430.00" x2="565.45" y2="435.00" stroke="#000" />
<text class="tick-label tick-label-x" x="565.45" y="437.00" text-anchor="middle" dominant-baseline="hanging" font-size="10" fill="#000">20</text>
<line class="y-tick" x1="50.00" y1="412.73" x2="45.00" y2="412.73" stroke="#000" />
<text class="tick-label tick-label-y" x="43.00" y="412.73" text-anchor="end" dominant-baseline="middle" font-size="10" fill="#000">0</text>
<line class="y-tick" x1="50.00" y1="326.36" x2="45.00" y2="326.36" stroke="#000" />
<text class="tick-label tick-label-y" x="43.00" y="326.36" text-anchor="end" dominant-baseline="middle" font-size="10" fill="#000">5</text>
<line class="y-tick" x1="50.00" y1="240.00" x2="45.00" y2="240.00" stroke="#000" />
<text class="tick-label tick-label-y" x="43.00" y="240.00" text-anchor="end" dominant-baseline="middle" font-size="10" fill="#000">10</text>
<line class="y-tick" x1="50.00" y1="153.64" x2="45.00" y2="153.64" stroke="#000" />
<text class="tick-label tick-label-y" x="43.00" y="153.64" text-anchor="end" dominant-baseline="middle" font-size="10" fill="#000">15</text>
<line class="y-tick" x1="50.00" y1="67.27" x2="45.00" y2="67.27" stroke="#000" />
<text class="tick-label tick-label-y" x="43.00" y="67.27" text-anchor="end" dominant-baseline="middle" font-size="10" fill="#000">20</text>
<text x="320" y="40" text-anchor="middle" font-size="14" font-weight="bold" fill="#000">Correlation Matrix</text>
</svg>