<svg xmlns="http://www.w3.org/2000/svg" xmlns:xlink="http://www.w3.org/1999/xlink" width="1025" zoomAndPan="magnify" viewBox="0 0 768.75 767.999994" height="1024" preserveAspectRatio="xMidYMid meet" version="1.0"><defs><g/><clipPath id="4a9bdb91db"><path d="M 76.773438 76.898438 L 232.847656 76.898438 L 232.847656 232.972656 L 76.773438 232.972656 Z M 76.773438 76.898438 " clip-rule="nonzero"/></clipPath><clipPath id="bee4b072db"><path d="M 91.769531 76.898438 L 217.855469 76.898438 C 226.136719 76.898438 232.847656 83.613281 232.847656 91.894531 L 232.847656 217.980469 C 232.847656 226.261719 226.136719 232.972656 217.855469 232.972656 L 91.769531 232.972656 C 83.488281 232.972656 76.773438 226.261719 76.773438 217.980469 L 76.773438 91.894531 C 76.773438 83.613281 83.488281 76.898438 91.769531 76.898438 Z M 91.769531 76.898438 " clip-rule="nonzero"/></clipPath><clipPath id="9ed5cf549a"><path d="M 0.773438 0.898438 L 156.847656 0.898438 L 156.847656 156.972656 L 0.773438 156.972656 Z M 0.773438 0.898438 " clip-rule="nonzero"/></clipPath><clipPath id="e8596a7c0c"><path d="M 15.769531 0.898438 L 141.855469 0.898438 C 150.136719 0.898438 156.847656 7.613281 156.847656 15.894531 L 156.847656 141.980469 C 156.847656 150.261719 150.136719 156.972656 141.855469 156.972656 L 15.769531 156.972656 C 7.488281 156.972656 0.773438 150.261719 0.773438 141.980469 L 0.773438 15.894531 C 0.773438 7.613281 7.488281 0.898438 15.769531 0.898438 Z M 15.769531 0.898438 " clip-rule="nonzero"/></clipPath><clipPath id="3c2bc18e54"><rect x="0" width="157" y="0" height="157"/></clipPath><clipPath id="35aec5ce3d"><path d="M 306.214844 76.898438 L 462.285156 76.898438 L 462.285156 232.972656 L 306.214844 232.972656 Z M 306.214844 76.898438 " clip-rule="nonzero"/></clipPath><clipPath id="65445bd28c"><path d="M 321.207031 76.898438 L 447.292969 76.898438 C 455.574219 76.898438 462.285156 83.613281 462.285156 91.894531 L 462.285156 217.980469 C 462.285156 226.261719 455.574219 232.972656 447.292969 232.972656 L 321.207031 232.972656 C 312.925781 232.972656 306.214844 226.261719 306.214844 217.980469 L 306.214844 91.894531 C 306.214844 83.613281 312.925781 76.898438 321.207031 76.898438 Z M 321.207031 76.898438 " clip-rule="nonzero"/></clipPath><clipPath id="8c595b5f62"><path d="M 0.214844 0.898438 L 156.285156 0.898438 L 156.285156 156.972656 L 0.214844 156.972656 Z M 0.214844 0.898438 " clip-rule="nonzero"/></clipPath><clipPath id="ae7df813f9"><path d="M 15.207031 0.898438 L 141.292969 0.898438 C 149.574219 0.898438 156.285156 7.613281 156.285156 15.894531 L 156.285156 141.980469 C 156.285156 150.261719 149.574219 156.972656 141.292969 156.972656 L 15.207031 156.972656 C 6.925781 156.972656 0.214844 150.261719 0.214844 141.980469 L 0.214844 15.894531 C 0.214844 7.613281 6.925781 0.898438 15.207031 0.898438 Z M 15.207031 0.898438 " clip-rule="nonzero"/></clipPath><clipPath id="0f244d21f5"><rect x="0" width="157" y="0" height="157"/></clipPath><clipPath id="3a26cb00ea"><path d="M 535.652344 76.898438 L 691.726562 76.898438 L 691.726562 232.972656 L 535.652344 232.972656 Z M 535.652344 76.898438 " clip-rule="nonzero"/></clipPath><clipPath id="fb73faa4ad"><path d="M 550.644531 76.898438 L 676.730469 76.898438 C 685.011719 76.898438 691.726562 83.613281 691.726562 91.894531 L 691.726562 217.980469 C 691.726562 226.261719 685.011719 232.972656 676.730469 232.972656 L 550.644531 232.972656 C 542.363281 232.972656 535.652344 226.261719 535.652344 217.980469 L 535.652344 91.894531 C 535.652344 83.613281 542.363281 76.898438 550.644531 76.898438 Z M 550.644531 76.898438 " clip-rule="nonzero"/></clipPath><clipPath id="69521b51e8"><path d="M 0.652344 0.898438 L 156.726562 0.898438 L 156.726562 156.972656 L 0.652344 156.972656 Z M 0.652344 0.898438 " clip-rule="nonzero"/></clipPath><clipPath id="14c5d9ebb1"><path d="M 15.644531 0.898438 L 141.730469 0.898438 C 150.011719 0.898438 156.726562 7.613281 156.726562 15.894531 L 156.726562 141.980469 C 156.726562 150.261719 150.011719 156.972656 141.730469 156.972656 L 15.644531 156.972656 C 7.363281 156.972656 0.652344 150.261719 0.652344 141.980469 L 0.652344 15.894531 C 0.652344 7.613281 7.363281 0.898438 15.644531 0.898438 Z M 15.644531 0.898438 " clip-rule="nonzero"/></clipPath><clipPath id="96f9fbd15a"><rect x="0" width="157" y="0" height="157"/></clipPath><clipPath id="dc02457914"><path d="M 76.773438 535.027344 L 232.847656 535.027344 L 232.847656 691.101562 L 76.773438 691.101562 Z M 76.773438 535.027344 " clip-rule="nonzero"/></clipPath><clipPath id="2fccdc8e75"><path d="M 91.769531 535.027344 L 217.855469 535.027344 C 226.136719 535.027344 232.847656 541.738281 232.847656 550.019531 L 232.847656 676.105469 C 232.847656 684.386719 226.136719 691.101562 217.855469 691.101562 L 91.769531 691.101562 C 83.488281 691.101562 76.773438 684.386719 76.773438 676.105469 L 76.773438 550.019531 C 76.773438 541.738281 83.488281 535.027344 91.769531 535.027344 Z M 91.769531 535.027344 " clip-rule="nonzero"/></clipPath><clipPath id="826327002b"><path d="M 0.773438 0.0273438 L 156.847656 0.0273438 L 156.847656 156.101562 L 0.773438 156.101562 Z M 0.773438 0.0273438 " clip-rule="nonzero"/></clipPath><clipPath id="3af12e8a24"><path d="M 15.769531 0.0273438 L 141.855469 0.0273438 C 150.136719 0.0273438 156.847656 6.738281 156.847656 15.019531 L 156.847656 141.105469 C 156.847656 149.386719 150.136719 156.101562 141.855469 156.101562 L 15.769531 156.101562 C 7.488281 156.101562 0.773438 149.386719 0.773438 141.105469 L 0.773438 15.019531 C 0.773438 6.738281 7.488281 0.0273438 15.769531 0.0273438 Z M 15.769531 0.0273438 " clip-rule="nonzero"/></clipPath><clipPath id="acdece0cf2"><rect x="0" width="157" y="0" height="157"/></clipPath><clipPath id="989a1b4281"><path d="M 76.773438 305.964844 L 232.847656 305.964844 L 232.847656 462.035156 L 76.773438 462.035156 Z M 76.773438 305.964844 " clip-rule="nonzero"/></clipPath><clipPath id="19c491453c"><path d="M 91.769531 305.964844 L 217.855469 305.964844 C 226.136719 305.964844 232.847656 312.675781 232.847656 320.957031 L 232.847656 447.042969 C 232.847656 455.324219 226.136719 462.035156 217.855469 462.035156 L 91.769531 462.035156 C 83.488281 462.035156 76.773438 455.324219 76.773438 447.042969 L 76.773438 320.957031 C 76.773438 312.675781 83.488281 305.964844 91.769531 305.964844 Z M 91.769531 305.964844 " clip-rule="nonzero"/></clipPath><clipPath id="6a24ba5c10"><path d="M 0.773438 0.964844 L 156.847656 0.964844 L 156.847656 157.035156 L 0.773438 157.035156 Z M 0.773438 0.964844 " clip-rule="nonzero"/></clipPath><clipPath id="85b6f66df5"><path d="M 15.769531 0.964844 L 141.855469 0.964844 C 150.136719 0.964844 156.847656 7.675781 156.847656 15.957031 L 156.847656 142.042969 C 156.847656 150.324219 150.136719 157.035156 141.855469 157.035156 L 15.769531 157.035156 C 7.488281 157.035156 0.773438 150.324219 0.773438 142.042969 L 0.773438 15.957031 C 0.773438 7.675781 7.488281 0.964844 15.769531 0.964844 Z M 15.769531 0.964844 " clip-rule="nonzero"/></clipPath><clipPath id="0654fe2d94"><rect x="0" width="157" y="0" height="158"/></clipPath><clipPath id="429c1033e8"><path d="M 306.214844 305.964844 L 462.285156 305.964844 L 462.285156 462.035156 L 306.214844 462.035156 Z M 306.214844 305.964844 " clip-rule="nonzero"/></clipPath><clipPath id="4c674d78e9"><path d="M 321.207031 305.964844 L 447.292969 305.964844 C 455.574219 305.964844 462.285156 312.675781 462.285156 320.957031 L 462.285156 447.042969 C 462.285156 455.324219 455.574219 462.035156 447.292969 462.035156 L 321.207031 462.035156 C 312.925781 462.035156 306.214844 455.324219 306.214844 447.042969 L 306.214844 320.957031 C 306.214844 312.675781 312.925781 305.964844 321.207031 305.964844 Z M 321.207031 305.964844 " clip-rule="nonzero"/></clipPath><clipPath id="fb71ff105c"><path d="M 0.214844 0.964844 L 156.285156 0.964844 L 156.285156 157.035156 L 0.214844 157.035156 Z M 0.214844 0.964844 " clip-rule="nonzero"/></clipPath><clipPath id="3271283efa"><path d="M 15.207031 0.964844 L 141.292969 0.964844 C 149.574219 0.964844 156.285156 7.675781 156.285156 15.957031 L 156.285156 142.042969 C 156.285156 150.324219 149.574219 157.035156 141.292969 157.035156 L 15.207031 157.035156 C 6.925781 157.035156 0.214844 150.324219 0.214844 142.042969 L 0.214844 15.957031 C 0.214844 7.675781 6.925781 0.964844 15.207031 0.964844 Z M 15.207031 0.964844 " clip-rule="nonzero"/></clipPath><clipPath id="03567cd85f"><rect x="0" width="157" y="0" height="158"/></clipPath><clipPath id="f0bd5fca56"><path d="M 535.652344 305.964844 L 691.726562 305.964844 L 691.726562 462.035156 L 535.652344 462.035156 Z M 535.652344 305.964844 " clip-rule="nonzero"/></clipPath><clipPath id="3fcb161546"><path d="M 550.644531 305.964844 L 676.730469 305.964844 C 685.011719 305.964844 691.726562 312.675781 691.726562 320.957031 L 691.726562 447.042969 C 691.726562 455.324219 685.011719 462.035156 676.730469 462.035156 L 550.644531 462.035156 C 542.363281 462.035156 535.652344 455.324219 535.652344 447.042969 L 535.652344 320.957031 C 535.652344 312.675781 542.363281 305.964844 550.644531 305.964844 Z M 550.644531 305.964844 " clip-rule="nonzero"/></clipPath><clipPath id="b92a55a310"><path d="M 0.652344 0.964844 L 156.726562 0.964844 L 156.726562 157.035156 L 0.652344 157.035156 Z M 0.652344 0.964844 " clip-rule="nonzero"/></clipPath><clipPath id="674acb2eaa"><path d="M 15.644531 0.964844 L 141.730469 0.964844 C 150.011719 0.964844 156.726562 7.675781 156.726562 15.957031 L 156.726562 142.042969 C 156.726562 150.324219 150.011719 157.035156 141.730469 157.035156 L 15.644531 157.035156 C 7.363281 157.035156 0.652344 150.324219 0.652344 142.042969 L 0.652344 15.957031 C 0.652344 7.675781 7.363281 0.964844 15.644531 0.964844 Z M 15.644531 0.964844 " clip-rule="nonzero"/></clipPath><clipPath id="d13955a263"><rect x="0" width="157" y="0" height="158"/></clipPath></defs><g clip-path="url(#4a9bdb91db)"><g clip-path="url(#bee4b072db)"><g transform="matrix(1, 0, 0, 1, 76, 76)"><g clip-path="url(#3c2bc18e54)"><g clip-path="url(#9ed5cf549a)"><g clip-path="url(#e8596a7c0c)"><path fill="#2281f8" d="M 0.773438 0.898438 L 156.847656 0.898438 L 156.847656 156.972656 L 0.773438 156.972656 Z M 0.773438 0.898438 " fill-opacity="1" fill-rule="nonzero"/></g></g></g></g></g></g><g clip-path="url(#35aec5ce3d)"><g clip-path="url(#65445bd28c)"><g transform="matrix(1, 0, 0, 1, 306, 76)"><g clip-path="url(#0f244d21f5)"><g clip-path="url(#8c595b5f62)"><g clip-path="url(#ae7df813f9)"><path fill="#9b51e0" d="M 0.214844 0.898438 L 156.285156 0.898438 L 156.285156 156.972656 L 0.214844 156.972656 Z M 0.214844 0.898438 " fill-opacity="1" fill-rule="nonzero"/></g></g></g></g></g></g><g clip-path="url(#3a26cb00ea)"><g clip-path="url(#fb73faa4ad)"><g transform="matrix(1, 0, 0, 1, 535, 76)"><g clip-path="url(#96f9fbd15a)"><g clip-path="url(#69521b51e8)"><g clip-path="url(#14c5d9ebb1)"><path fill="#ffffff" d="M 0.652344 0.898438 L 156.726562 0.898438 L 156.726562 156.972656 L 0.652344 156.972656 Z M 0.652344 0.898438 " fill-opacity="1" fill-rule="nonzero"/></g></g></g></g></g></g><g clip-path="url(#dc02457914)"><g clip-path="url(#2fccdc8e75)"><g transform="matrix(1, 0, 0, 1, 76, 535)"><g clip-path="url(#acdece0cf2)"><g clip-path="url(#826327002b)"><g clip-path="url(#3af12e8a24)"><path fill="#f7f3ec" d="M 0.773438 0.0273438 L 156.847656 0.0273438 L 156.847656 156.101562 L 0.773438 156.101562 Z M 0.773438 0.0273438 " fill-opacity="1" fill-rule="nonzero"/></g></g></g></g></g></g><g clip-path="url(#989a1b4281)"><g clip-path="url(#19c491453c)"><g transform="matrix(1, 0, 0, 1, 76, 305)"><g clip-path="url(#0654fe2d94)"><g clip-path="url(#6a24ba5c10)"><g clip-path="url(#85b6f66df5)"><path fill="#6b6b6b" d="M 0.773438 0.964844 L 156.847656 0.964844 L 156.847656 157.035156 L 0.773438 157.035156 Z M 0.773438 0.964844 " fill-opacity="1" fill-rule="nonzero"/></g></g></g></g></g></g><g clip-path="url(#429c1033e8)"><g clip-path="url(#4c674d78e9)"><g transform="matrix(1, 0, 0, 1, 306, 305)"><g clip-path="url(#03567cd85f)"><g clip-path="url(#fb71ff105c)"><g clip-path="url(#3271283efa)"><path fill="#363636" d="M 0.214844 0.964844 L 156.285156 0.964844 L 156.285156 157.035156 L 0.214844 157.035156 Z M 0.214844 0.964844 " fill-opacity="1" fill-rule="nonzero"/></g></g></g></g></g></g><g fill="#000000" fill-opacity="1"><g transform="translate(116.4514, 255.316484)"><g><path d="M 12.4375 0 L 1.171875 0 L 1.171875 -1.671875 L 5.6875 -6.21875 C 7.0625 -7.601562 7.96875 -8.59375 8.40625 -9.1875 C 8.84375 -9.78125 9.171875 -10.359375 9.390625 -10.921875 C 9.609375 -11.484375 9.71875 -12.085938 9.71875 -12.734375 C 9.71875 -13.648438 9.4375 -14.375 8.875 -14.90625 C 8.320312 -15.445312 7.554688 -15.71875 6.578125 -15.71875 C 5.867188 -15.71875 5.191406 -15.597656 4.546875 -15.359375 C 3.910156 -15.128906 3.203125 -14.707031 2.421875 -14.09375 L 1.390625 -15.40625 C 2.972656 -16.71875 4.691406 -17.375 6.546875 -17.375 C 8.160156 -17.375 9.421875 -16.960938 10.328125 -16.140625 C 11.242188 -15.316406 11.703125 -14.210938 11.703125 -12.828125 C 11.703125 -11.734375 11.394531 -10.65625 10.78125 -9.59375 C 10.175781 -8.53125 9.039062 -7.1875 7.375 -5.5625 L 3.625 -1.90625 L 3.625 -1.8125 L 12.4375 -1.8125 Z M 12.4375 0 "/></g></g><g transform="translate(130.169594, 255.316484)"><g><path d="M 12.4375 0 L 1.171875 0 L 1.171875 -1.671875 L 5.6875 -6.21875 C 7.0625 -7.601562 7.96875 -8.59375 8.40625 -9.1875 C 8.84375 -9.78125 9.171875 -10.359375 9.390625 -10.921875 C 9.609375 -11.484375 9.71875 -12.085938 9.71875 -12.734375 C 9.71875 -13.648438 9.4375 -14.375 8.875 -14.90625 C 8.320312 -15.445312 7.554688 -15.71875 6.578125 -15.71875 C 5.867188 -15.71875 5.191406 -15.597656 4.546875 -15.359375 C 3.910156 -15.128906 3.203125 -14.707031 2.421875 -14.09375 L 1.390625 -15.40625 C 2.972656 -16.71875 4.691406 -17.375 6.546875 -17.375 C 8.160156 -17.375 9.421875 -16.960938 10.328125 -16.140625 C 11.242188 -15.316406 11.703125 -14.210938 11.703125 -12.828125 C 11.703125 -11.734375 11.394531 -10.65625 10.78125 -9.59375 C 10.175781 -8.53125 9.039062 -7.1875 7.375 -5.5625 L 3.625 -1.90625 L 3.625 -1.8125 L 12.4375 -1.8125 Z M 12.4375 0 "/></g></g><g transform="translate(143.887789, 255.316484)"><g><path d="M 6.84375 -17.375 C 8.40625 -17.375 9.644531 -17.007812 10.5625 -16.28125 C 11.476562 -15.5625 11.9375 -14.5625 11.9375 -13.28125 C 11.9375 -12.4375 11.671875 -11.664062 11.140625 -10.96875 C 10.617188 -10.269531 9.785156 -9.640625 8.640625 -9.078125 C 10.023438 -8.410156 11.007812 -7.710938 11.59375 -6.984375 C 12.1875 -6.253906 12.484375 -5.40625 12.484375 -4.4375 C 12.484375 -3.019531 11.984375 -1.882812 10.984375 -1.03125 C 9.992188 -0.1875 8.640625 0.234375 6.921875 0.234375 C 5.085938 0.234375 3.675781 -0.164062 2.6875 -0.96875 C 1.707031 -1.769531 1.21875 -2.90625 1.21875 -4.375 C 1.21875 -6.332031 2.414062 -7.859375 4.8125 -8.953125 C 3.726562 -9.566406 2.953125 -10.222656 2.484375 -10.921875 C 2.015625 -11.628906 1.78125 -12.421875 1.78125 -13.296875 C 1.78125 -14.546875 2.238281 -15.535156 3.15625 -16.265625 C 4.070312 -17.003906 5.300781 -17.375 6.84375 -17.375 Z M 3.140625 -4.328125 C 3.140625 -3.390625 3.460938 -2.65625 4.109375 -2.125 C 4.765625 -1.601562 5.6875 -1.34375 6.875 -1.34375 C 8.03125 -1.34375 8.929688 -1.613281 9.578125 -2.15625 C 10.234375 -2.707031 10.5625 -3.460938 10.5625 -4.421875 C 10.5625 -5.179688 10.253906 -5.851562 9.640625 -6.4375 C 9.035156 -7.03125 7.972656 -7.601562 6.453125 -8.15625 C 5.296875 -7.65625 4.453125 -7.101562 3.921875 -6.5 C 3.398438 -5.894531 3.140625 -5.171875 3.140625 -4.328125 Z M 6.828125 -15.796875 C 5.847656 -15.796875 5.078125 -15.5625 4.515625 -15.09375 C 3.960938 -14.625 3.6875 -14 3.6875 -13.21875 C 3.6875 -12.5 3.914062 -11.878906 4.375 -11.359375 C 4.84375 -10.847656 5.695312 -10.335938 6.9375 -9.828125 C 8.050781 -10.296875 8.84375 -10.796875 9.3125 -11.328125 C 9.78125 -11.867188 10.015625 -12.5 10.015625 -13.21875 C 10.015625 -14.007812 9.726562 -14.632812 9.15625 -15.09375 C 8.59375 -15.5625 7.816406 -15.796875 6.828125 -15.796875 Z M 6.828125 -15.796875 "/></g></g><g transform="translate(157.605983, 255.316484)"><g><path d="M 8.375 0 L 6.484375 0 L 6.484375 -12.21875 C 6.484375 -13.226562 6.515625 -14.1875 6.578125 -15.09375 C 6.410156 -14.925781 6.222656 -14.753906 6.015625 -14.578125 C 5.816406 -14.398438 4.890625 -13.640625 3.234375 -12.296875 L 2.203125 -13.625 L 6.734375 -17.140625 L 8.375 -17.140625 Z M 8.375 0 "/></g></g><g transform="translate(171.324178, 255.316484)"><g><path d="M 7.859375 -11.328125 L 4.578125 -11.328125 L 4.578125 0 L 2.640625 0 L 2.640625 -11.328125 L 0.34375 -11.328125 L 0.34375 -12.21875 L 2.640625 -12.921875 L 2.640625 -13.625 C 2.640625 -16.78125 4.019531 -18.359375 6.78125 -18.359375 C 7.457031 -18.359375 8.253906 -18.222656 9.171875 -17.953125 L 8.65625 -16.390625 C 7.90625 -16.640625 7.265625 -16.765625 6.734375 -16.765625 C 6.003906 -16.765625 5.460938 -16.519531 5.109375 -16.03125 C 4.753906 -15.539062 4.578125 -14.753906 4.578125 -13.671875 L 4.578125 -12.84375 L 7.859375 -12.84375 Z M 7.859375 -11.328125 "/></g></g><g transform="translate(179.454346, 255.316484)"><g><path d="M 6.84375 -17.375 C 8.40625 -17.375 9.644531 -17.007812 10.5625 -16.28125 C 11.476562 -15.5625 11.9375 -14.5625 11.9375 -13.28125 C 11.9375 -12.4375 11.671875 -11.664062 11.140625 -10.96875 C 10.617188 -10.269531 9.785156 -9.640625 8.640625 -9.078125 C 10.023438 -8.410156 11.007812 -7.710938 11.59375 -6.984375 C 12.1875 -6.253906 12.484375 -5.40625 12.484375 -4.4375 C 12.484375 -3.019531 11.984375 -1.882812 10.984375 -1.03125 C 9.992188 -0.1875 8.640625 0.234375 6.921875 0.234375 C 5.085938 0.234375 3.675781 -0.164062 2.6875 -0.96875 C 1.707031 -1.769531 1.21875 -2.90625 1.21875 -4.375 C 1.21875 -6.332031 2.414062 -7.859375 4.8125 -8.953125 C 3.726562 -9.566406 2.953125 -10.222656 2.484375 -10.921875 C 2.015625 -11.628906 1.78125 -12.421875 1.78125 -13.296875 C 1.78125 -14.546875 2.238281 -15.535156 3.15625 -16.265625 C 4.070312 -17.003906 5.300781 -17.375 6.84375 -17.375 Z M 3.140625 -4.328125 C 3.140625 -3.390625 3.460938 -2.65625 4.109375 -2.125 C 4.765625 -1.601562 5.6875 -1.34375 6.875 -1.34375 C 8.03125 -1.34375 8.929688 -1.613281 9.578125 -2.15625 C 10.234375 -2.707031 10.5625 -3.460938 10.5625 -4.421875 C 10.5625 -5.179688 10.253906 -5.851562 9.640625 -6.4375 C 9.035156 -7.03125 7.972656 -7.601562 6.453125 -8.15625 C 5.296875 -7.65625 4.453125 -7.101562 3.921875 -6.5 C 3.398438 -5.894531 3.140625 -5.171875 3.140625 -4.328125 Z M 6.828125 -15.796875 C 5.847656 -15.796875 5.078125 -15.5625 4.515625 -15.09375 C 3.960938 -14.625 3.6875 -14 3.6875 -13.21875 C 3.6875 -12.5 3.914062 -11.878906 4.375 -11.359375 C 4.84375 -10.847656 5.695312 -10.335938 6.9375 -9.828125 C 8.050781 -10.296875 8.84375 -10.796875 9.3125 -11.328125 C 9.78125 -11.867188 10.015625 -12.5 10.015625 -13.21875 C 10.015625 -14.007812 9.726562 -14.632812 9.15625 -15.09375 C 8.59375 -15.5625 7.816406 -15.796875 6.828125 -15.796875 Z M 6.828125 -15.796875 "/></g></g></g><g fill="#000000" fill-opacity="1"><g transform="translate(342.732279, 255.316484)"><g><path d="M 12.4375 -9.828125 C 12.4375 -3.117188 9.84375 0.234375 4.65625 0.234375 C 3.75 0.234375 3.03125 0.15625 2.5 0 L 2.5 -1.671875 C 3.125 -1.472656 3.832031 -1.375 4.625 -1.375 C 6.5 -1.375 7.914062 -1.953125 8.875 -3.109375 C 9.832031 -4.273438 10.351562 -6.054688 10.4375 -8.453125 L 10.296875 -8.453125 C 9.867188 -7.804688 9.300781 -7.3125 8.59375 -6.96875 C 7.882812 -6.625 7.082031 -6.453125 6.1875 -6.453125 C 4.675781 -6.453125 3.472656 -6.90625 2.578125 -7.8125 C 1.691406 -8.71875 1.25 -9.984375 1.25 -11.609375 C 1.25 -13.390625 1.742188 -14.796875 2.734375 -15.828125 C 3.734375 -16.859375 5.046875 -17.375 6.671875 -17.375 C 7.835938 -17.375 8.851562 -17.078125 9.71875 -16.484375 C 10.59375 -15.890625 11.265625 -15.019531 11.734375 -13.875 C 12.203125 -12.726562 12.4375 -11.378906 12.4375 -9.828125 Z M 6.671875 -15.71875 C 5.554688 -15.71875 4.691406 -15.359375 4.078125 -14.640625 C 3.472656 -13.921875 3.171875 -12.921875 3.171875 -11.640625 C 3.171875 -10.515625 3.453125 -9.628906 4.015625 -8.984375 C 4.578125 -8.335938 5.429688 -8.015625 6.578125 -8.015625 C 7.285156 -8.015625 7.9375 -8.160156 8.53125 -8.453125 C 9.132812 -8.742188 9.609375 -9.140625 9.953125 -9.640625 C 10.296875 -10.140625 10.46875 -10.660156 10.46875 -11.203125 C 10.46875 -12.023438 10.304688 -12.78125 9.984375 -13.46875 C 9.660156 -14.164062 9.210938 -14.710938 8.640625 -15.109375 C 8.066406 -15.515625 7.410156 -15.71875 6.671875 -15.71875 Z M 6.671875 -15.71875 "/></g></g><g transform="translate(356.450474, 255.316484)"><g><path d="M 8.046875 -13.0625 C 9.734375 -13.0625 11.039062 -12.484375 11.96875 -11.328125 C 12.90625 -10.171875 13.375 -8.539062 13.375 -6.4375 C 13.375 -4.320312 12.898438 -2.679688 11.953125 -1.515625 C 11.015625 -0.347656 9.710938 0.234375 8.046875 0.234375 C 7.203125 0.234375 6.4375 0.0820312 5.75 -0.21875 C 5.0625 -0.53125 4.484375 -1.007812 4.015625 -1.65625 L 3.875 -1.65625 L 3.453125 0 L 2.0625 0 L 2.0625 -18.234375 L 4.015625 -18.234375 L 4.015625 -13.8125 C 4.015625 -12.8125 3.984375 -11.921875 3.921875 -11.140625 L 4.015625 -11.140625 C 4.921875 -12.421875 6.265625 -13.0625 8.046875 -13.0625 Z M 7.765625 -11.421875 C 6.429688 -11.421875 5.472656 -11.039062 4.890625 -10.28125 C 4.304688 -9.519531 4.015625 -8.238281 4.015625 -6.4375 C 4.015625 -4.632812 4.3125 -3.34375 4.90625 -2.5625 C 5.507812 -1.78125 6.476562 -1.390625 7.8125 -1.390625 C 9 -1.390625 9.882812 -1.828125 10.46875 -2.703125 C 11.0625 -3.578125 11.359375 -4.828125 11.359375 -6.453125 C 11.359375 -8.128906 11.0625 -9.375 10.46875 -10.1875 C 9.882812 -11.007812 8.984375 -11.421875 7.765625 -11.421875 Z M 7.765625 -11.421875 "/></g></g><g transform="translate(371.152723, 255.316484)"><g><path d="M 6.53125 -10.46875 C 8.332031 -10.46875 9.75 -10.019531 10.78125 -9.125 C 11.820312 -8.226562 12.34375 -7.003906 12.34375 -5.453125 C 12.34375 -3.679688 11.773438 -2.289062 10.640625 -1.28125 C 9.515625 -0.269531 7.960938 0.234375 5.984375 0.234375 C 4.046875 0.234375 2.570312 -0.0703125 1.5625 -0.6875 L 1.5625 -2.5625 C 2.101562 -2.21875 2.78125 -1.941406 3.59375 -1.734375 C 4.40625 -1.535156 5.207031 -1.4375 6 -1.4375 C 7.375 -1.4375 8.441406 -1.757812 9.203125 -2.40625 C 9.960938 -3.0625 10.34375 -4.003906 10.34375 -5.234375 C 10.34375 -7.617188 8.878906 -8.8125 5.953125 -8.8125 C 5.210938 -8.8125 4.222656 -8.695312 2.984375 -8.46875 L 1.96875 -9.125 L 2.609375 -17.140625 L 11.140625 -17.140625 L 11.140625 -15.34375 L 4.28125 -15.34375 L 3.84375 -10.203125 C 4.738281 -10.378906 5.632812 -10.46875 6.53125 -10.46875 Z M 6.53125 -10.46875 "/></g></g><g transform="translate(384.870917, 255.316484)"><g><path d="M 8.375 0 L 6.484375 0 L 6.484375 -12.21875 C 6.484375 -13.226562 6.515625 -14.1875 6.578125 -15.09375 C 6.410156 -14.925781 6.222656 -14.753906 6.015625 -14.578125 C 5.816406 -14.398438 4.890625 -13.640625 3.234375 -12.296875 L 2.203125 -13.625 L 6.734375 -17.140625 L 8.375 -17.140625 Z M 8.375 0 "/></g></g><g transform="translate(398.589112, 255.316484)"><g><path d="M 7.484375 0.234375 C 5.585938 0.234375 4.085938 -0.34375 2.984375 -1.5 C 1.890625 -2.65625 1.34375 -4.257812 1.34375 -6.3125 C 1.34375 -8.382812 1.851562 -10.03125 2.875 -11.25 C 3.894531 -12.46875 5.265625 -13.078125 6.984375 -13.078125 C 8.597656 -13.078125 9.875 -12.546875 10.8125 -11.484375 C 11.75 -10.429688 12.21875 -9.035156 12.21875 -7.296875 L 12.21875 -6.078125 L 3.359375 -6.078125 C 3.398438 -4.566406 3.78125 -3.421875 4.5 -2.640625 C 5.226562 -1.859375 6.25 -1.46875 7.5625 -1.46875 C 8.945312 -1.46875 10.3125 -1.753906 11.65625 -2.328125 L 11.65625 -0.59375 C 10.96875 -0.300781 10.316406 -0.09375 9.703125 0.03125 C 9.097656 0.164062 8.359375 0.234375 7.484375 0.234375 Z M 6.96875 -11.453125 C 5.9375 -11.453125 5.113281 -11.113281 4.5 -10.4375 C 3.882812 -9.769531 3.519531 -8.84375 3.40625 -7.65625 L 10.125 -7.65625 C 10.125 -8.882812 9.847656 -9.820312 9.296875 -10.46875 C 8.753906 -11.125 7.976562 -11.453125 6.96875 -11.453125 Z M 6.96875 -11.453125 "/></g></g><g transform="translate(412.049578, 255.316484)"><g><path d="M 12.53125 -8.59375 C 12.53125 -5.632812 12.0625 -3.421875 11.125 -1.953125 C 10.195312 -0.492188 8.769531 0.234375 6.84375 0.234375 C 5 0.234375 3.597656 -0.507812 2.640625 -2 C 1.679688 -3.5 1.203125 -5.695312 1.203125 -8.59375 C 1.203125 -11.570312 1.664062 -13.785156 2.59375 -15.234375 C 3.519531 -16.679688 4.9375 -17.40625 6.84375 -17.40625 C 8.707031 -17.40625 10.117188 -16.648438 11.078125 -15.140625 C 12.046875 -13.628906 12.53125 -11.445312 12.53125 -8.59375 Z M 3.171875 -8.59375 C 3.171875 -6.101562 3.460938 -4.285156 4.046875 -3.140625 C 4.628906 -2.003906 5.5625 -1.4375 6.84375 -1.4375 C 8.144531 -1.4375 9.082031 -2.015625 9.65625 -3.171875 C 10.238281 -4.328125 10.53125 -6.132812 10.53125 -8.59375 C 10.53125 -11.050781 10.238281 -12.851562 9.65625 -14 C 9.082031 -15.144531 8.144531 -15.71875 6.84375 -15.71875 C 5.5625 -15.71875 4.628906 -15.148438 4.046875 -14.015625 C 3.460938 -12.890625 3.171875 -11.082031 3.171875 -8.59375 Z M 3.171875 -8.59375 "/></g></g></g><g fill="#000000" fill-opacity="1"><g transform="translate(589.297558, 255.316484)"><g><path d="M 7.859375 -11.328125 L 4.578125 -11.328125 L 4.578125 0 L 2.640625 0 L 2.640625 -11.328125 L 0.34375 -11.328125 L 0.34375 -12.21875 L 2.640625 -12.921875 L 2.640625 -13.625 C 2.640625 -16.78125 4.019531 -18.359375 6.78125 -18.359375 C 7.457031 -18.359375 8.253906 -18.222656 9.171875 -17.953125 L 8.65625 -16.390625 C 7.90625 -16.640625 7.265625 -16.765625 6.734375 -16.765625 C 6.003906 -16.765625 5.460938 -16.519531 5.109375 -16.03125 C 4.753906 -15.539062 4.578125 -14.753906 4.578125 -13.671875 L 4.578125 -12.84375 L 7.859375 -12.84375 Z M 7.859375 -11.328125 "/></g></g><g transform="translate(597.427726, 255.316484)"><g><path d="M 7.859375 -11.328125 L 4.578125 -11.328125 L 4.578125 0 L 2.640625 0 L 2.640625 -11.328125 L 0.34375 -11.328125 L 0.34375 -12.21875 L 2.640625 -12.921875 L 2.640625 -13.625 C 2.640625 -16.78125 4.019531 -18.359375 6.78125 -18.359375 C 7.457031 -18.359375 8.253906 -18.222656 9.171875 -17.953125 L 8.65625 -16.390625 C 7.90625 -16.640625 7.265625 -16.765625 6.734375 -16.765625 C 6.003906 -16.765625 5.460938 -16.519531 5.109375 -16.03125 C 4.753906 -15.539062 4.578125 -14.753906 4.578125 -13.671875 L 4.578125 -12.84375 L 7.859375 -12.84375 Z M 7.859375 -11.328125 "/></g></g><g transform="translate(605.557894, 255.316484)"><g><path d="M 7.859375 -11.328125 L 4.578125 -11.328125 L 4.578125 0 L 2.640625 0 L 2.640625 -11.328125 L 0.34375 -11.328125 L 0.34375 -12.21875 L 2.640625 -12.921875 L 2.640625 -13.625 C 2.640625 -16.78125 4.019531 -18.359375 6.78125 -18.359375 C 7.457031 -18.359375 8.253906 -18.222656 9.171875 -17.953125 L 8.65625 -16.390625 C 7.90625 -16.640625 7.265625 -16.765625 6.734375 -16.765625 C 6.003906 -16.765625 5.460938 -16.519531 5.109375 -16.03125 C 4.753906 -15.539062 4.578125 -14.753906 4.578125 -13.671875 L 4.578125 -12.84375 L 7.859375 -12.84375 Z M 7.859375 -11.328125 "/></g></g><g transform="translate(613.688063, 255.316484)"><g><path d="M 7.859375 -11.328125 L 4.578125 -11.328125 L 4.578125 0 L 2.640625 0 L 2.640625 -11.328125 L 0.34375 -11.328125 L 0.34375 -12.21875 L 2.640625 -12.921875 L 2.640625 -13.625 C 2.640625 -16.78125 4.019531 -18.359375 6.78125 -18.359375 C 7.457031 -18.359375 8.253906 -18.222656 9.171875 -17.953125 L 8.65625 -16.390625 C 7.90625 -16.640625 7.265625 -16.765625 6.734375 -16.765625 C 6.003906 -16.765625 5.460938 -16.519531 5.109375 -16.03125 C 4.753906 -15.539062 4.578125 -14.753906 4.578125 -13.671875 L 4.578125 -12.84375 L 7.859375 -12.84375 Z M 7.859375 -11.328125 "/></g></g><g transform="translate(621.818231, 255.316484)"><g><path d="M 7.859375 -11.328125 L 4.578125 -11.328125 L 4.578125 0 L 2.640625 0 L 2.640625 -11.328125 L 0.34375 -11.328125 L 0.34375 -12.21875 L 2.640625 -12.921875 L 2.640625 -13.625 C 2.640625 -16.78125 4.019531 -18.359375 6.78125 -18.359375 C 7.457031 -18.359375 8.253906 -18.222656 9.171875 -17.953125 L 8.65625 -16.390625 C 7.90625 -16.640625 7.265625 -16.765625 6.734375 -16.765625 C 6.003906 -16.765625 5.460938 -16.519531 5.109375 -16.03125 C 4.753906 -15.539062 4.578125 -14.753906 4.578125 -13.671875 L 4.578125 -12.84375 L 7.859375 -12.84375 Z M 7.859375 -11.328125 "/></g></g><g transform="translate(629.948399, 255.316484)"><g><path d="M 7.859375 -11.328125 L 4.578125 -11.328125 L 4.578125 0 L 2.640625 0 L 2.640625 -11.328125 L 0.34375 -11.328125 L 0.34375 -12.21875 L 2.640625 -12.921875 L 2.640625 -13.625 C 2.640625 -16.78125 4.019531 -18.359375 6.78125 -18.359375 C 7.457031 -18.359375 8.253906 -18.222656 9.171875 -17.953125 L 8.65625 -16.390625 C 7.90625 -16.640625 7.265625 -16.765625 6.734375 -16.765625 C 6.003906 -16.765625 5.460938 -16.519531 5.109375 -16.03125 C 4.753906 -15.539062 4.578125 -14.753906 4.578125 -13.671875 L 4.578125 -12.84375 L 7.859375 -12.84375 Z M 7.859375 -11.328125 "/></g></g></g><g fill="#000000" fill-opacity="1"><g transform="translate(112.181305, 484.379633)"><g><path d="M 1.375 -7.328125 C 1.375 -10.691406 2.023438 -13.207031 3.328125 -14.875 C 4.640625 -16.539062 6.578125 -17.375 9.140625 -17.375 C 10.023438 -17.375 10.722656 -17.300781 11.234375 -17.15625 L 11.234375 -15.484375 C 10.628906 -15.679688 9.941406 -15.78125 9.171875 -15.78125 C 7.328125 -15.78125 5.921875 -15.207031 4.953125 -14.0625 C 3.984375 -12.914062 3.453125 -11.113281 3.359375 -8.65625 L 3.5 -8.65625 C 4.363281 -10 5.722656 -10.671875 7.578125 -10.671875 C 9.117188 -10.671875 10.332031 -10.207031 11.21875 -9.28125 C 12.101562 -8.351562 12.546875 -7.09375 12.546875 -5.5 C 12.546875 -3.71875 12.0625 -2.316406 11.09375 -1.296875 C 10.125 -0.273438 8.8125 0.234375 7.15625 0.234375 C 5.375 0.234375 3.960938 -0.429688 2.921875 -1.765625 C 1.890625 -3.097656 1.375 -4.953125 1.375 -7.328125 Z M 7.125 -1.421875 C 8.238281 -1.421875 9.097656 -1.769531 9.703125 -2.46875 C 10.316406 -3.164062 10.625 -4.175781 10.625 -5.5 C 10.625 -6.632812 10.335938 -7.523438 9.765625 -8.171875 C 9.203125 -8.816406 8.351562 -9.140625 7.21875 -9.140625 C 6.519531 -9.140625 5.875 -8.992188 5.28125 -8.703125 C 4.695312 -8.421875 4.226562 -8.023438 3.875 -7.515625 C 3.53125 -7.003906 3.359375 -6.476562 3.359375 -5.9375 C 3.359375 -5.125 3.515625 -4.367188 3.828125 -3.671875 C 4.140625 -2.984375 4.582031 -2.4375 5.15625 -2.03125 C 5.738281 -1.625 6.394531 -1.421875 7.125 -1.421875 Z M 7.125 -1.421875 "/></g></g><g transform="translate(125.899499, 484.379633)"><g><path d="M 8.046875 -13.0625 C 9.734375 -13.0625 11.039062 -12.484375 11.96875 -11.328125 C 12.90625 -10.171875 13.375 -8.539062 13.375 -6.4375 C 13.375 -4.320312 12.898438 -2.679688 11.953125 -1.515625 C 11.015625 -0.347656 9.710938 0.234375 8.046875 0.234375 C 7.203125 0.234375 6.4375 0.0820312 5.75 -0.21875 C 5.0625 -0.53125 4.484375 -1.007812 4.015625 -1.65625 L 3.875 -1.65625 L 3.453125 0 L 2.0625 0 L 2.0625 -18.234375 L 4.015625 -18.234375 L 4.015625 -13.8125 C 4.015625 -12.8125 3.984375 -11.921875 3.921875 -11.140625 L 4.015625 -11.140625 C 4.921875 -12.421875 6.265625 -13.0625 8.046875 -13.0625 Z M 7.765625 -11.421875 C 6.429688 -11.421875 5.472656 -11.039062 4.890625 -10.28125 C 4.304688 -9.519531 4.015625 -8.238281 4.015625 -6.4375 C 4.015625 -4.632812 4.3125 -3.34375 4.90625 -2.5625 C 5.507812 -1.78125 6.476562 -1.390625 7.8125 -1.390625 C 9 -1.390625 9.882812 -1.828125 10.46875 -2.703125 C 11.0625 -3.578125 11.359375 -4.828125 11.359375 -6.453125 C 11.359375 -8.128906 11.0625 -9.375 10.46875 -10.1875 C 9.882812 -11.007812 8.984375 -11.421875 7.765625 -11.421875 Z M 7.765625 -11.421875 "/></g></g><g transform="translate(140.601749, 484.379633)"><g><path d="M 1.375 -7.328125 C 1.375 -10.691406 2.023438 -13.207031 3.328125 -14.875 C 4.640625 -16.539062 6.578125 -17.375 9.140625 -17.375 C 10.023438 -17.375 10.722656 -17.300781 11.234375 -17.15625 L 11.234375 -15.484375 C 10.628906 -15.679688 9.941406 -15.78125 9.171875 -15.78125 C 7.328125 -15.78125 5.921875 -15.207031 4.953125 -14.0625 C 3.984375 -12.914062 3.453125 -11.113281 3.359375 -8.65625 L 3.5 -8.65625 C 4.363281 -10 5.722656 -10.671875 7.578125 -10.671875 C 9.117188 -10.671875 10.332031 -10.207031 11.21875 -9.28125 C 12.101562 -8.351562 12.546875 -7.09375 12.546875 -5.5 C 12.546875 -3.71875 12.0625 -2.316406 11.09375 -1.296875 C 10.125 -0.273438 8.8125 0.234375 7.15625 0.234375 C 5.375 0.234375 3.960938 -0.429688 2.921875 -1.765625 C 1.890625 -3.097656 1.375 -4.953125 1.375 -7.328125 Z M 7.125 -1.421875 C 8.238281 -1.421875 9.097656 -1.769531 9.703125 -2.46875 C 10.316406 -3.164062 10.625 -4.175781 10.625 -5.5 C 10.625 -6.632812 10.335938 -7.523438 9.765625 -8.171875 C 9.203125 -8.816406 8.351562 -9.140625 7.21875 -9.140625 C 6.519531 -9.140625 5.875 -8.992188 5.28125 -8.703125 C 4.695312 -8.421875 4.226562 -8.023438 3.875 -7.515625 C 3.53125 -7.003906 3.359375 -6.476562 3.359375 -5.9375 C 3.359375 -5.125 3.515625 -4.367188 3.828125 -3.671875 C 4.140625 -2.984375 4.582031 -2.4375 5.15625 -2.03125 C 5.738281 -1.625 6.394531 -1.421875 7.125 -1.421875 Z M 7.125 -1.421875 "/></g></g><g transform="translate(154.319943, 484.379633)"><g><path d="M 8.046875 -13.0625 C 9.734375 -13.0625 11.039062 -12.484375 11.96875 -11.328125 C 12.90625 -10.171875 13.375 -8.539062 13.375 -6.4375 C 13.375 -4.320312 12.898438 -2.679688 11.953125 -1.515625 C 11.015625 -0.347656 9.710938 0.234375 8.046875 0.234375 C 7.203125 0.234375 6.4375 0.0820312 5.75 -0.21875 C 5.0625 -0.53125 4.484375 -1.007812 4.015625 -1.65625 L 3.875 -1.65625 L 3.453125 0 L 2.0625 0 L 2.0625 -18.234375 L 4.015625 -18.234375 L 4.015625 -13.8125 C 4.015625 -12.8125 3.984375 -11.921875 3.921875 -11.140625 L 4.015625 -11.140625 C 4.921875 -12.421875 6.265625 -13.0625 8.046875 -13.0625 Z M 7.765625 -11.421875 C 6.429688 -11.421875 5.472656 -11.039062 4.890625 -10.28125 C 4.304688 -9.519531 4.015625 -8.238281 4.015625 -6.4375 C 4.015625 -4.632812 4.3125 -3.34375 4.90625 -2.5625 C 5.507812 -1.78125 6.476562 -1.390625 7.8125 -1.390625 C 9 -1.390625 9.882812 -1.828125 10.46875 -2.703125 C 11.0625 -3.578125 11.359375 -4.828125 11.359375 -6.453125 C 11.359375 -8.128906 11.0625 -9.375 10.46875 -10.1875 C 9.882812 -11.007812 8.984375 -11.421875 7.765625 -11.421875 Z M 7.765625 -11.421875 "/></g></g><g transform="translate(169.022192, 484.379633)"><g><path d="M 1.375 -7.328125 C 1.375 -10.691406 2.023438 -13.207031 3.328125 -14.875 C 4.640625 -16.539062 6.578125 -17.375 9.140625 -17.375 C 10.023438 -17.375 10.722656 -17.300781 11.234375 -17.15625 L 11.234375 -15.484375 C 10.628906 -15.679688 9.941406 -15.78125 9.171875 -15.78125 C 7.328125 -15.78125 5.921875 -15.207031 4.953125 -14.0625 C 3.984375 -12.914062 3.453125 -11.113281 3.359375 -8.65625 L 3.5 -8.65625 C 4.363281 -10 5.722656 -10.671875 7.578125 -10.671875 C 9.117188 -10.671875 10.332031 -10.207031 11.21875 -9.28125 C 12.101562 -8.351562 12.546875 -7.09375 12.546875 -5.5 C 12.546875 -3.71875 12.0625 -2.316406 11.09375 -1.296875 C 10.125 -0.273438 8.8125 0.234375 7.15625 0.234375 C 5.375 0.234375 3.960938 -0.429688 2.921875 -1.765625 C 1.890625 -3.097656 1.375 -4.953125 1.375 -7.328125 Z M 7.125 -1.421875 C 8.238281 -1.421875 9.097656 -1.769531 9.703125 -2.46875 C 10.316406 -3.164062 10.625 -4.175781 10.625 -5.5 C 10.625 -6.632812 10.335938 -7.523438 9.765625 -8.171875 C 9.203125 -8.816406 8.351562 -9.140625 7.21875 -9.140625 C 6.519531 -9.140625 5.875 -8.992188 5.28125 -8.703125 C 4.695312 -8.421875 4.226562 -8.023438 3.875 -7.515625 C 3.53125 -7.003906 3.359375 -6.476562 3.359375 -5.9375 C 3.359375 -5.125 3.515625 -4.367188 3.828125 -3.671875 C 4.140625 -2.984375 4.582031 -2.4375 5.15625 -2.03125 C 5.738281 -1.625 6.394531 -1.421875 7.125 -1.421875 Z M 7.125 -1.421875 "/></g></g><g transform="translate(182.740387, 484.379633)"><g><path d="M 8.046875 -13.0625 C 9.734375 -13.0625 11.039062 -12.484375 11.96875 -11.328125 C 12.90625 -10.171875 13.375 -8.539062 13.375 -6.4375 C 13.375 -4.320312 12.898438 -2.679688 11.953125 -1.515625 C 11.015625 -0.347656 9.710938 0.234375 8.046875 0.234375 C 7.203125 0.234375 6.4375 0.0820312 5.75 -0.21875 C 5.0625 -0.53125 4.484375 -1.007812 4.015625 -1.65625 L 3.875 -1.65625 L 3.453125 0 L 2.0625 0 L 2.0625 -18.234375 L 4.015625 -18.234375 L 4.015625 -13.8125 C 4.015625 -12.8125 3.984375 -11.921875 3.921875 -11.140625 L 4.015625 -11.140625 C 4.921875 -12.421875 6.265625 -13.0625 8.046875 -13.0625 Z M 7.765625 -11.421875 C 6.429688 -11.421875 5.472656 -11.039062 4.890625 -10.28125 C 4.304688 -9.519531 4.015625 -8.238281 4.015625 -6.4375 C 4.015625 -4.632812 4.3125 -3.34375 4.90625 -2.5625 C 5.507812 -1.78125 6.476562 -1.390625 7.8125 -1.390625 C 9 -1.390625 9.882812 -1.828125 10.46875 -2.703125 C 11.0625 -3.578125 11.359375 -4.828125 11.359375 -6.453125 C 11.359375 -8.128906 11.0625 -9.375 10.46875 -10.1875 C 9.882812 -11.007812 8.984375 -11.421875 7.765625 -11.421875 Z M 7.765625 -11.421875 "/></g></g></g><g fill="#000000" fill-opacity="1"><g transform="translate(343.095442, 484.379633)"><g><path d="M 11.796875 -13.109375 C 11.796875 -12.015625 11.488281 -11.117188 10.875 -10.421875 C 10.257812 -9.722656 9.390625 -9.257812 8.265625 -9.03125 L 8.265625 -8.9375 C 9.640625 -8.757812 10.65625 -8.316406 11.3125 -7.609375 C 11.976562 -6.910156 12.3125 -5.992188 12.3125 -4.859375 C 12.3125 -3.222656 11.742188 -1.960938 10.609375 -1.078125 C 9.484375 -0.203125 7.878906 0.234375 5.796875 0.234375 C 4.890625 0.234375 4.054688 0.164062 3.296875 0.03125 C 2.546875 -0.101562 1.816406 -0.34375 1.109375 -0.6875 L 1.109375 -2.546875 C 1.847656 -2.179688 2.632812 -1.898438 3.46875 -1.703125 C 4.3125 -1.515625 5.109375 -1.421875 5.859375 -1.421875 C 8.816406 -1.421875 10.296875 -2.582031 10.296875 -4.90625 C 10.296875 -6.976562 8.664062 -8.015625 5.40625 -8.015625 L 3.71875 -8.015625 L 3.71875 -9.6875 L 5.421875 -9.6875 C 6.765625 -9.6875 7.828125 -9.984375 8.609375 -10.578125 C 9.390625 -11.171875 9.78125 -11.988281 9.78125 -13.03125 C 9.78125 -13.863281 9.488281 -14.519531 8.90625 -15 C 8.332031 -15.476562 7.554688 -15.71875 6.578125 -15.71875 C 5.828125 -15.71875 5.117188 -15.613281 4.453125 -15.40625 C 3.785156 -15.207031 3.03125 -14.832031 2.1875 -14.28125 L 1.203125 -15.59375 C 1.898438 -16.15625 2.707031 -16.59375 3.625 -16.90625 C 4.539062 -17.21875 5.507812 -17.375 6.53125 -17.375 C 8.195312 -17.375 9.488281 -16.992188 10.40625 -16.234375 C 11.332031 -15.472656 11.796875 -14.429688 11.796875 -13.109375 Z M 11.796875 -13.109375 "/></g></g><g transform="translate(356.813636, 484.379633)"><g><path d="M 1.375 -7.328125 C 1.375 -10.691406 2.023438 -13.207031 3.328125 -14.875 C 4.640625 -16.539062 6.578125 -17.375 9.140625 -17.375 C 10.023438 -17.375 10.722656 -17.300781 11.234375 -17.15625 L 11.234375 -15.484375 C 10.628906 -15.679688 9.941406 -15.78125 9.171875 -15.78125 C 7.328125 -15.78125 5.921875 -15.207031 4.953125 -14.0625 C 3.984375 -12.914062 3.453125 -11.113281 3.359375 -8.65625 L 3.5 -8.65625 C 4.363281 -10 5.722656 -10.671875 7.578125 -10.671875 C 9.117188 -10.671875 10.332031 -10.207031 11.21875 -9.28125 C 12.101562 -8.351562 12.546875 -7.09375 12.546875 -5.5 C 12.546875 -3.71875 12.0625 -2.316406 11.09375 -1.296875 C 10.125 -0.273438 8.8125 0.234375 7.15625 0.234375 C 5.375 0.234375 3.960938 -0.429688 2.921875 -1.765625 C 1.890625 -3.097656 1.375 -4.953125 1.375 -7.328125 Z M 7.125 -1.421875 C 8.238281 -1.421875 9.097656 -1.769531 9.703125 -2.46875 C 10.316406 -3.164062 10.625 -4.175781 10.625 -5.5 C 10.625 -6.632812 10.335938 -7.523438 9.765625 -8.171875 C 9.203125 -8.816406 8.351562 -9.140625 7.21875 -9.140625 C 6.519531 -9.140625 5.875 -8.992188 5.28125 -8.703125 C 4.695312 -8.421875 4.226562 -8.023438 3.875 -7.515625 C 3.53125 -7.003906 3.359375 -6.476562 3.359375 -5.9375 C 3.359375 -5.125 3.515625 -4.367188 3.828125 -3.671875 C 4.140625 -2.984375 4.582031 -2.4375 5.15625 -2.03125 C 5.738281 -1.625 6.394531 -1.421875 7.125 -1.421875 Z M 7.125 -1.421875 "/></g></g><g transform="translate(370.531831, 484.379633)"><g><path d="M 11.796875 -13.109375 C 11.796875 -12.015625 11.488281 -11.117188 10.875 -10.421875 C 10.257812 -9.722656 9.390625 -9.257812 8.265625 -9.03125 L 8.265625 -8.9375 C 9.640625 -8.757812 10.65625 -8.316406 11.3125 -7.609375 C 11.976562 -6.910156 12.3125 -5.992188 12.3125 -4.859375 C 12.3125 -3.222656 11.742188 -1.960938 10.609375 -1.078125 C 9.484375 -0.203125 7.878906 0.234375 5.796875 0.234375 C 4.890625 0.234375 4.054688 0.164062 3.296875 0.03125 C 2.546875 -0.101562 1.816406 -0.34375 1.109375 -0.6875 L 1.109375 -2.546875 C 1.847656 -2.179688 2.632812 -1.898438 3.46875 -1.703125 C 4.3125 -1.515625 5.109375 -1.421875 5.859375 -1.421875 C 8.816406 -1.421875 10.296875 -2.582031 10.296875 -4.90625 C 10.296875 -6.976562 8.664062 -8.015625 5.40625 -8.015625 L 3.71875 -8.015625 L 3.71875 -9.6875 L 5.421875 -9.6875 C 6.765625 -9.6875 7.828125 -9.984375 8.609375 -10.578125 C 9.390625 -11.171875 9.78125 -11.988281 9.78125 -13.03125 C 9.78125 -13.863281 9.488281 -14.519531 8.90625 -15 C 8.332031 -15.476562 7.554688 -15.71875 6.578125 -15.71875 C 5.828125 -15.71875 5.117188 -15.613281 4.453125 -15.40625 C 3.785156 -15.207031 3.03125 -14.832031 2.1875 -14.28125 L 1.203125 -15.59375 C 1.898438 -16.15625 2.707031 -16.59375 3.625 -16.90625 C 4.539062 -17.21875 5.507812 -17.375 6.53125 -17.375 C 8.195312 -17.375 9.488281 -16.992188 10.40625 -16.234375 C 11.332031 -15.472656 11.796875 -14.429688 11.796875 -13.109375 Z M 11.796875 -13.109375 "/></g></g><g transform="translate(384.250025, 484.379633)"><g><path d="M 1.375 -7.328125 C 1.375 -10.691406 2.023438 -13.207031 3.328125 -14.875 C 4.640625 -16.539062 6.578125 -17.375 9.140625 -17.375 C 10.023438 -17.375 10.722656 -17.300781 11.234375 -17.15625 L 11.234375 -15.484375 C 10.628906 -15.679688 9.941406 -15.78125 9.171875 -15.78125 C 7.328125 -15.78125 5.921875 -15.207031 4.953125 -14.0625 C 3.984375 -12.914062 3.453125 -11.113281 3.359375 -8.65625 L 3.5 -8.65625 C 4.363281 -10 5.722656 -10.671875 7.578125 -10.671875 C 9.117188 -10.671875 10.332031 -10.207031 11.21875 -9.28125 C 12.101562 -8.351562 12.546875 -7.09375 12.546875 -5.5 C 12.546875 -3.71875 12.0625 -2.316406 11.09375 -1.296875 C 10.125 -0.273438 8.8125 0.234375 7.15625 0.234375 C 5.375 0.234375 3.960938 -0.429688 2.921875 -1.765625 C 1.890625 -3.097656 1.375 -4.953125 1.375 -7.328125 Z M 7.125 -1.421875 C 8.238281 -1.421875 9.097656 -1.769531 9.703125 -2.46875 C 10.316406 -3.164062 10.625 -4.175781 10.625 -5.5 C 10.625 -6.632812 10.335938 -7.523438 9.765625 -8.171875 C 9.203125 -8.816406 8.351562 -9.140625 7.21875 -9.140625 C 6.519531 -9.140625 5.875 -8.992188 5.28125 -8.703125 C 4.695312 -8.421875 4.226562 -8.023438 3.875 -7.515625 C 3.53125 -7.003906 3.359375 -6.476562 3.359375 -5.9375 C 3.359375 -5.125 3.515625 -4.367188 3.828125 -3.671875 C 4.140625 -2.984375 4.582031 -2.4375 5.15625 -2.03125 C 5.738281 -1.625 6.394531 -1.421875 7.125 -1.421875 Z M 7.125 -1.421875 "/></g></g><g transform="translate(397.968219, 484.379633)"><g><path d="M 11.796875 -13.109375 C 11.796875 -12.015625 11.488281 -11.117188 10.875 -10.421875 C 10.257812 -9.722656 9.390625 -9.257812 8.265625 -9.03125 L 8.265625 -8.9375 C 9.640625 -8.757812 10.65625 -8.316406 11.3125 -7.609375 C 11.976562 -6.910156 12.3125 -5.992188 12.3125 -4.859375 C 12.3125 -3.222656 11.742188 -1.960938 10.609375 -1.078125 C 9.484375 -0.203125 7.878906 0.234375 5.796875 0.234375 C 4.890625 0.234375 4.054688 0.164062 3.296875 0.03125 C 2.546875 -0.101562 1.816406 -0.34375 1.109375 -0.6875 L 1.109375 -2.546875 C 1.847656 -2.179688 2.632812 -1.898438 3.46875 -1.703125 C 4.3125 -1.515625 5.109375 -1.421875 5.859375 -1.421875 C 8.816406 -1.421875 10.296875 -2.582031 10.296875 -4.90625 C 10.296875 -6.976562 8.664062 -8.015625 5.40625 -8.015625 L 3.71875 -8.015625 L 3.71875 -9.6875 L 5.421875 -9.6875 C 6.765625 -9.6875 7.828125 -9.984375 8.609375 -10.578125 C 9.390625 -11.171875 9.78125 -11.988281 9.78125 -13.03125 C 9.78125 -13.863281 9.488281 -14.519531 8.90625 -15 C 8.332031 -15.476562 7.554688 -15.71875 6.578125 -15.71875 C 5.828125 -15.71875 5.117188 -15.613281 4.453125 -15.40625 C 3.785156 -15.207031 3.03125 -14.832031 2.1875 -14.28125 L 1.203125 -15.59375 C 1.898438 -16.15625 2.707031 -16.59375 3.625 -16.90625 C 4.539062 -17.21875 5.507812 -17.375 6.53125 -17.375 C 8.195312 -17.375 9.488281 -16.992188 10.40625 -16.234375 C 11.332031 -15.472656 11.796875 -14.429688 11.796875 -13.109375 Z M 11.796875 -13.109375 "/></g></g><g transform="translate(411.686414, 484.379633)"><g><path d="M 1.375 -7.328125 C 1.375 -10.691406 2.023438 -13.207031 3.328125 -14.875 C 4.640625 -16.539062 6.578125 -17.375 9.140625 -17.375 C 10.023438 -17.375 10.722656 -17.300781 11.234375 -17.15625 L 11.234375 -15.484375 C 10.628906 -15.679688 9.941406 -15.78125 9.171875 -15.78125 C 7.328125 -15.78125 5.921875 -15.207031 4.953125 -14.0625 C 3.984375 -12.914062 3.453125 -11.113281 3.359375 -8.65625 L 3.5 -8.65625 C 4.363281 -10 5.722656 -10.671875 7.578125 -10.671875 C 9.117188 -10.671875 10.332031 -10.207031 11.21875 -9.28125 C 12.101562 -8.351562 12.546875 -7.09375 12.546875 -5.5 C 12.546875 -3.71875 12.0625 -2.316406 11.09375 -1.296875 C 10.125 -0.273438 8.8125 0.234375 7.15625 0.234375 C 5.375 0.234375 3.960938 -0.429688 2.921875 -1.765625 C 1.890625 -3.097656 1.375 -4.953125 1.375 -7.328125 Z M 7.125 -1.421875 C 8.238281 -1.421875 9.097656 -1.769531 9.703125 -2.46875 C 10.316406 -3.164062 10.625 -4.175781 10.625 -5.5 C 10.625 -6.632812 10.335938 -7.523438 9.765625 -8.171875 C 9.203125 -8.816406 8.351562 -9.140625 7.21875 -9.140625 C 6.519531 -9.140625 5.875 -8.992188 5.28125 -8.703125 C 4.695312 -8.421875 4.226562 -8.023438 3.875 -7.515625 C 3.53125 -7.003906 3.359375 -6.476562 3.359375 -5.9375 C 3.359375 -5.125 3.515625 -4.367188 3.828125 -3.671875 C 4.140625 -2.984375 4.582031 -2.4375 5.15625 -2.03125 C 5.738281 -1.625 6.394531 -1.421875 7.125 -1.421875 Z M 7.125 -1.421875 "/></g></g></g><g fill="#000000" fill-opacity="1"><g transform="translate(120.522341, 713.442851)"><g><path d="M 7.859375 -11.328125 L 4.578125 -11.328125 L 4.578125 0 L 2.640625 0 L 2.640625 -11.328125 L 0.34375 -11.328125 L 0.34375 -12.21875 L 2.640625 -12.921875 L 2.640625 -13.625 C 2.640625 -16.78125 4.019531 -18.359375 6.78125 -18.359375 C 7.457031 -18.359375 8.253906 -18.222656 9.171875 -17.953125 L 8.65625 -16.390625 C 7.90625 -16.640625 7.265625 -16.765625 6.734375 -16.765625 C 6.003906 -16.765625 5.460938 -16.519531 5.109375 -16.03125 C 4.753906 -15.539062 4.578125 -14.753906 4.578125 -13.671875 L 4.578125 -12.84375 L 7.859375 -12.84375 Z M 7.859375 -11.328125 "/></g></g><g transform="translate(128.652509, 713.442851)"><g><path d="M 3.34375 0 L 10.4375 -15.34375 L 1.109375 -15.34375 L 1.109375 -17.140625 L 12.5 -17.140625 L 12.5 -15.578125 L 5.5 0 Z M 3.34375 0 "/></g></g><g transform="translate(142.370703, 713.442851)"><g><path d="M 7.859375 -11.328125 L 4.578125 -11.328125 L 4.578125 0 L 2.640625 0 L 2.640625 -11.328125 L 0.34375 -11.328125 L 0.34375 -12.21875 L 2.640625 -12.921875 L 2.640625 -13.625 C 2.640625 -16.78125 4.019531 -18.359375 6.78125 -18.359375 C 7.457031 -18.359375 8.253906 -18.222656 9.171875 -17.953125 L 8.65625 -16.390625 C 7.90625 -16.640625 7.265625 -16.765625 6.734375 -16.765625 C 6.003906 -16.765625 5.460938 -16.519531 5.109375 -16.03125 C 4.753906 -15.539062 4.578125 -14.753906 4.578125 -13.671875 L 4.578125 -12.84375 L 7.859375 -12.84375 Z M 7.859375 -11.328125 "/></g></g><g transform="translate(150.500872, 713.442851)"><g><path d="M 11.796875 -13.109375 C 11.796875 -12.015625 11.488281 -11.117188 10.875 -10.421875 C 10.257812 -9.722656 9.390625 -9.257812 8.265625 -9.03125 L 8.265625 -8.9375 C 9.640625 -8.757812 10.65625 -8.316406 11.3125 -7.609375 C 11.976562 -6.910156 12.3125 -5.992188 12.3125 -4.859375 C 12.3125 -3.222656 11.742188 -1.960938 10.609375 -1.078125 C 9.484375 -0.203125 7.878906 0.234375 5.796875 0.234375 C 4.890625 0.234375 4.054688 0.164062 3.296875 0.03125 C 2.546875 -0.101562 1.816406 -0.34375 1.109375 -0.6875 L 1.109375 -2.546875 C 1.847656 -2.179688 2.632812 -1.898438 3.46875 -1.703125 C 4.3125 -1.515625 5.109375 -1.421875 5.859375 -1.421875 C 8.816406 -1.421875 10.296875 -2.582031 10.296875 -4.90625 C 10.296875 -6.976562 8.664062 -8.015625 5.40625 -8.015625 L 3.71875 -8.015625 L 3.71875 -9.6875 L 5.421875 -9.6875 C 6.765625 -9.6875 7.828125 -9.984375 8.609375 -10.578125 C 9.390625 -11.171875 9.78125 -11.988281 9.78125 -13.03125 C 9.78125 -13.863281 9.488281 -14.519531 8.90625 -15 C 8.332031 -15.476562 7.554688 -15.71875 6.578125 -15.71875 C 5.828125 -15.71875 5.117188 -15.613281 4.453125 -15.40625 C 3.785156 -15.207031 3.03125 -14.832031 2.1875 -14.28125 L 1.203125 -15.59375 C 1.898438 -16.15625 2.707031 -16.59375 3.625 -16.90625 C 4.539062 -17.21875 5.507812 -17.375 6.53125 -17.375 C 8.195312 -17.375 9.488281 -16.992188 10.40625 -16.234375 C 11.332031 -15.472656 11.796875 -14.429688 11.796875 -13.109375 Z M 11.796875 -13.109375 "/></g></g><g transform="translate(164.219066, 713.442851)"><g><path d="M 7.484375 0.234375 C 5.585938 0.234375 4.085938 -0.34375 2.984375 -1.5 C 1.890625 -2.65625 1.34375 -4.257812 1.34375 -6.3125 C 1.34375 -8.382812 1.851562 -10.03125 2.875 -11.25 C 3.894531 -12.46875 5.265625 -13.078125 6.984375 -13.078125 C 8.597656 -13.078125 9.875 -12.546875 10.8125 -11.484375 C 11.75 -10.429688 12.21875 -9.035156 12.21875 -7.296875 L 12.21875 -6.078125 L 3.359375 -6.078125 C 3.398438 -4.566406 3.78125 -3.421875 4.5 -2.640625 C 5.226562 -1.859375 6.25 -1.46875 7.5625 -1.46875 C 8.945312 -1.46875 10.3125 -1.753906 11.65625 -2.328125 L 11.65625 -0.59375 C 10.96875 -0.300781 10.316406 -0.09375 9.703125 0.03125 C 9.097656 0.164062 8.359375 0.234375 7.484375 0.234375 Z M 6.96875 -11.453125 C 5.9375 -11.453125 5.113281 -11.113281 4.5 -10.4375 C 3.882812 -9.769531 3.519531 -8.84375 3.40625 -7.65625 L 10.125 -7.65625 C 10.125 -8.882812 9.847656 -9.820312 9.296875 -10.46875 C 8.753906 -11.125 7.976562 -11.453125 6.96875 -11.453125 Z M 6.96875 -11.453125 "/></g></g><g transform="translate(177.679532, 713.442851)"><g><path d="M 7.203125 0.234375 C 5.335938 0.234375 3.894531 -0.335938 2.875 -1.484375 C 1.851562 -2.628906 1.34375 -4.25 1.34375 -6.34375 C 1.34375 -8.488281 1.859375 -10.144531 2.890625 -11.3125 C 3.929688 -12.488281 5.410156 -13.078125 7.328125 -13.078125 C 7.941406 -13.078125 8.554688 -13.007812 9.171875 -12.875 C 9.796875 -12.75 10.28125 -12.59375 10.625 -12.40625 L 10.03125 -10.765625 C 9.601562 -10.929688 9.132812 -11.070312 8.625 -11.1875 C 8.113281 -11.300781 7.664062 -11.359375 7.28125 -11.359375 C 4.664062 -11.359375 3.359375 -9.691406 3.359375 -6.359375 C 3.359375 -4.785156 3.675781 -3.578125 4.3125 -2.734375 C 4.957031 -1.890625 5.90625 -1.46875 7.15625 -1.46875 C 8.21875 -1.46875 9.3125 -1.695312 10.4375 -2.15625 L 10.4375 -0.4375 C 9.582031 0.0078125 8.503906 0.234375 7.203125 0.234375 Z M 7.203125 0.234375 "/></g></g></g><g clip-path="url(#f0bd5fca56)"><g clip-path="url(#3fcb161546)"><g transform="matrix(1, 0, 0, 1, 535, 305)"><g clip-path="url(#d13955a263)"><g clip-path="url(#b92a55a310)"><g clip-path="url(#674acb2eaa)"><path fill="#000000" d="M 0.652344 0.964844 L 156.726562 0.964844 L 156.726562 157.035156 L 0.652344 157.035156 Z M 0.652344 0.964844 " fill-opacity="1" fill-rule="nonzero"/></g></g></g></g></g></g><g fill="#000000" fill-opacity="1"><g transform="translate(572.533466, 484.379633)"><g><path d="M 12.53125 -8.59375 C 12.53125 -5.632812 12.0625 -3.421875 11.125 -1.953125 C 10.195312 -0.492188 8.769531 0.234375 6.84375 0.234375 C 5 0.234375 3.597656 -0.507812 2.640625 -2 C 1.679688 -3.5 1.203125 -5.695312 1.203125 -8.59375 C 1.203125 -11.570312 1.664062 -13.785156 2.59375 -15.234375 C 3.519531 -16.679688 4.9375 -17.40625 6.84375 -17.40625 C 8.707031 -17.40625 10.117188 -16.648438 11.078125 -15.140625 C 12.046875 -13.628906 12.53125 -11.445312 12.53125 -8.59375 Z M 3.171875 -8.59375 C 3.171875 -6.101562 3.460938 -4.285156 4.046875 -3.140625 C 4.628906 -2.003906 5.5625 -1.4375 6.84375 -1.4375 C 8.144531 -1.4375 9.082031 -2.015625 9.65625 -3.171875 C 10.238281 -4.328125 10.53125 -6.132812 10.53125 -8.59375 C 10.53125 -11.050781 10.238281 -12.851562 9.65625 -14 C 9.082031 -15.144531 8.144531 -15.71875 6.84375 -15.71875 C 5.5625 -15.71875 4.628906 -15.148438 4.046875 -14.015625 C 3.460938 -12.890625 3.171875 -11.082031 3.171875 -8.59375 Z M 3.171875 -8.59375 "/></g></g><g transform="translate(586.251661, 484.379633)"><g><path d="M 12.53125 -8.59375 C 12.53125 -5.632812 12.0625 -3.421875 11.125 -1.953125 C 10.195312 -0.492188 8.769531 0.234375 6.84375 0.234375 C 5 0.234375 3.597656 -0.507812 2.640625 -2 C 1.679688 -3.5 1.203125 -5.695312 1.203125 -8.59375 C 1.203125 -11.570312 1.664062 -13.785156 2.59375 -15.234375 C 3.519531 -16.679688 4.9375 -17.40625 6.84375 -17.40625 C 8.707031 -17.40625 10.117188 -16.648438 11.078125 -15.140625 C 12.046875 -13.628906 12.53125 -11.445312 12.53125 -8.59375 Z M 3.171875 -8.59375 C 3.171875 -6.101562 3.460938 -4.285156 4.046875 -3.140625 C 4.628906 -2.003906 5.5625 -1.4375 6.84375 -1.4375 C 8.144531 -1.4375 9.082031 -2.015625 9.65625 -3.171875 C 10.238281 -4.328125 10.53125 -6.132812 10.53125 -8.59375 C 10.53125 -11.050781 10.238281 -12.851562 9.65625 -14 C 9.082031 -15.144531 8.144531 -15.71875 6.84375 -15.71875 C 5.5625 -15.71875 4.628906 -15.148438 4.046875 -14.015625 C 3.460938 -12.890625 3.171875 -11.082031 3.171875 -8.59375 Z M 3.171875 -8.59375 "/></g></g><g transform="translate(599.969855, 484.379633)"><g><path d="M 12.53125 -8.59375 C 12.53125 -5.632812 12.0625 -3.421875 11.125 -1.953125 C 10.195312 -0.492188 8.769531 0.234375 6.84375 0.234375 C 5 0.234375 3.597656 -0.507812 2.640625 -2 C 1.679688 -3.5 1.203125 -5.695312 1.203125 -8.59375 C 1.203125 -11.570312 1.664062 -13.785156 2.59375 -15.234375 C 3.519531 -16.679688 4.9375 -17.40625 6.84375 -17.40625 C 8.707031 -17.40625 10.117188 -16.648438 11.078125 -15.140625 C 12.046875 -13.628906 12.53125 -11.445312 12.53125 -8.59375 Z M 3.171875 -8.59375 C 3.171875 -6.101562 3.460938 -4.285156 4.046875 -3.140625 C 4.628906 -2.003906 5.5625 -1.4375 6.84375 -1.4375 C 8.144531 -1.4375 9.082031 -2.015625 9.65625 -3.171875 C 10.238281 -4.328125 10.53125 -6.132812 10.53125 -8.59375 C 10.53125 -11.050781 10.238281 -12.851562 9.65625 -14 C 9.082031 -15.144531 8.144531 -15.71875 6.84375 -15.71875 C 5.5625 -15.71875 4.628906 -15.148438 4.046875 -14.015625 C 3.460938 -12.890625 3.171875 -11.082031 3.171875 -8.59375 Z M 3.171875 -8.59375 "/></g></g><g transform="translate(613.68805, 484.379633)"><g><path d="M 12.53125 -8.59375 C 12.53125 -5.632812 12.0625 -3.421875 11.125 -1.953125 C 10.195312 -0.492188 8.769531 0.234375 6.84375 0.234375 C 5 0.234375 3.597656 -0.507812 2.640625 -2 C 1.679688 -3.5 1.203125 -5.695312 1.203125 -8.59375 C 1.203125 -11.570312 1.664062 -13.785156 2.59375 -15.234375 C 3.519531 -16.679688 4.9375 -17.40625 6.84375 -17.40625 C 8.707031 -17.40625 10.117188 -16.648438 11.078125 -15.140625 C 12.046875 -13.628906 12.53125 -11.445312 12.53125 -8.59375 Z M 3.171875 -8.59375 C 3.171875 -6.101562 3.460938 -4.285156 4.046875 -3.140625 C 4.628906 -2.003906 5.5625 -1.4375 6.84375 -1.4375 C 8.144531 -1.4375 9.082031 -2.015625 9.65625 -3.171875 C 10.238281 -4.328125 10.53125 -6.132812 10.53125 -8.59375 C 10.53125 -11.050781 10.238281 -12.851562 9.65625 -14 C 9.082031 -15.144531 8.144531 -15.71875 6.84375 -15.71875 C 5.5625 -15.71875 4.628906 -15.148438 4.046875 -14.015625 C 3.460938 -12.890625 3.171875 -11.082031 3.171875 -8.59375 Z M 3.171875 -8.59375 "/></g></g><g transform="translate(627.406244, 484.379633)"><g><path d="M 12.53125 -8.59375 C 12.53125 -5.632812 12.0625 -3.421875 11.125 -1.953125 C 10.195312 -0.492188 8.769531 0.234375 6.84375 0.234375 C 5 0.234375 3.597656 -0.507812 2.640625 -2 C 1.679688 -3.5 1.203125 -5.695312 1.203125 -8.59375 C 1.203125 -11.570312 1.664062 -13.785156 2.59375 -15.234375 C 3.519531 -16.679688 4.9375 -17.40625 6.84375 -17.40625 C 8.707031 -17.40625 10.117188 -16.648438 11.078125 -15.140625 C 12.046875 -13.628906 12.53125 -11.445312 12.53125 -8.59375 Z M 3.171875 -8.59375 C 3.171875 -6.101562 3.460938 -4.285156 4.046875 -3.140625 C 4.628906 -2.003906 5.5625 -1.4375 6.84375 -1.4375 C 8.144531 -1.4375 9.082031 -2.015625 9.65625 -3.171875 C 10.238281 -4.328125 10.53125 -6.132812 10.53125 -8.59375 C 10.53125 -11.050781 10.238281 -12.851562 9.65625 -14 C 9.082031 -15.144531 8.144531 -15.71875 6.84375 -15.71875 C 5.5625 -15.71875 4.628906 -15.148438 4.046875 -14.015625 C 3.460938 -12.890625 3.171875 -11.082031 3.171875 -8.59375 Z M 3.171875 -8.59375 "/></g></g><g transform="translate(641.124438, 484.379633)"><g><path d="M 12.53125 -8.59375 C 12.53125 -5.632812 12.0625 -3.421875 11.125 -1.953125 C 10.195312 -0.492188 8.769531 0.234375 6.84375 0.234375 C 5 0.234375 3.597656 -0.507812 2.640625 -2 C 1.679688 -3.5 1.203125 -5.695312 1.203125 -8.59375 C 1.203125 -11.570312 1.664062 -13.785156 2.59375 -15.234375 C 3.519531 -16.679688 4.9375 -17.40625 6.84375 -17.40625 C 8.707031 -17.40625 10.117188 -16.648438 11.078125 -15.140625 C 12.046875 -13.628906 12.53125 -11.445312 12.53125 -8.59375 Z M 3.171875 -8.59375 C 3.171875 -6.101562 3.460938 -4.285156 4.046875 -3.140625 C 4.628906 -2.003906 5.5625 -1.4375 6.84375 -1.4375 C 8.144531 -1.4375 9.082031 -2.015625 9.65625 -3.171875 C 10.238281 -4.328125 10.53125 -6.132812 10.53125 -8.59375 C 10.53125 -11.050781 10.238281 -12.851562 9.65625 -14 C 9.082031 -15.144531 8.144531 -15.71875 6.84375 -15.71875 C 5.5625 -15.71875 4.628906 -15.148438 4.046875 -14.015625 C 3.460938 -12.890625 3.171875 -11.082031 3.171875 -8.59375 Z M 3.171875 -8.59375 "/></g></g></g></svg>