<?xml version="1.0" encoding="UTF-8"?>
<svg xmlns="http://www.w3.org/2000/svg" width="800" height="600" viewBox="0 0 800 600">
<rect x="0" y="0" width="800" height="600" fill="#ffffff" />
<rect x="50" y="50" width="700" height="500" fill="#ffffff" stroke="#000" />
<polyline fill="none" stroke="#1f77b4" stroke-width="2" points="81.82,512.32 88.25,512.32 94.67,512.32 101.10,512.32 107.53,512.32 113.96,512.32 120.39,512.32 126.81,512.32 133.24,512.32 139.67,512.32 146.10,512.32 152.53,512.32 158.95,512.32 165.38,512.32 171.81,512.32 178.24,512.32 184.66,512.32 191.09,512.32 197.52,512.32 203.95,512.32 210.38,512.32 216.80,512.32 223.23,512.32 229.66,512.32 236.09,512.32 242.52,512.32 248.94,512.32 255.37,512.32 261.80,512.32 268.23,512.32 274.66,512.32 281.08,512.32 287.51,512.32 293.94,512.32 300.37,512.32 306.80,512.32 313.22,512.32 319.65,512.32 326.08,512.32 332.51,512.32 338.93,512.32 345.36,512.32 351.79,512.32 358.22,512.32 364.65,512.32 371.07,512.32 377.50,512.32 383.93,512.32 390.36,512.32 396.79,512.32 403.21,507.88 409.64,499.00 416.07,490.12 422.50,481.24 428.93,472.36 435.35,463.48 441.78,454.60 448.21,445.72 454.64,436.84 461.07,427.96 467.49,419.08 473.92,410.19 480.35,401.31 486.78,392.43 493.20,383.55 499.63,374.67 506.06,365.79 512.49,356.91 518.92,348.03 525.34,339.15 531.77,330.27 538.20,321.39 544.63,312.51 551.06,303.63 557.48,294.75 563.91,285.86 570.34,276.98 576.77,268.10 583.20,259.22 589.62,250.34 596.05,241.46 602.48,232.58 608.91,223.70 615.34,214.82 621.76,205.94 628.19,197.06 634.62,188.18 641.05,179.30 647.47,170.42 653.90,161.53 660.33,152.65 666.76,143.77 673.19,134.89 679.61,126.01 686.04,117.13 692.47,108.25 698.90,99.37 705.33,90.49 711.75,81.61 718.18,72.73" />
<polyline fill="none" stroke="#ff7f0e" stroke-width="2" points="81.82,511.73 88.25,511.67 94.67,511.60 101.10,511.53 107.53,511.44 113.96,511.35 120.39,511.25 126.81,511.14 133.24,511.01 139.67,510.88 146.10,510.73 152.53,510.56 158.95,510.38 165.38,510.17 171.81,509.95 178.24,509.71 184.66,509.44 191.09,509.14 197.52,508.82 203.95,508.46 210.38,508.07 216.80,507.64 223.23,507.18 229.66,506.67 236.09,506.11 242.52,505.50 248.94,504.83 255.37,504.11 261.80,503.33 268.23,502.48 274.66,501.56 281.08,500.57 287.51,499.50 293.94,498.36 300.37,497.13 306.80,495.82 313.22,494.42 319.65,492.94 326.08,491.37 332.51,489.71 338.93,487.97 345.36,486.16 351.79,484.26 358.22,482.30 364.65,480.27 371.07,478.19 377.50,476.05 383.93,473.88 390.36,471.69 396.79,469.47 403.21,467.25 409.64,465.04 416.07,462.84 422.50,460.67 428.93,458.54 435.35,456.46 441.78,454.43 448.21,452.47 454.64,450.57 461.07,448.75 467.49,447.02 473.92,445.36 480.35,443.79 486.78,442.31 493.20,440.91 499.63,439.60 506.06,438.37 512.49,437.23 518.92,436.16 525.34,435.17 531.77,434.25 538.20,433.40 544.63,432.62 551.06,431.89 557.48,431.23 563.91,430.62 570.34,430.06 576.77,429.55 583.20,429.08 589.62,428.65 596.05,428.26 602.48,427.91 608.91,427.58 615.34,427.29 621.76,427.02 628.19,426.77 634.62,426.55 641.05,426.35 647.47,426.17 653.90,426.00 660.33,425.85 666.76,425.71 673.19,425.59 679.61,425.48 686.04,425.37 692.47,425.28 698.90,425.20 705.33,425.12 711.75,425.05 718.18,424.99" />
<polyline fill="none" stroke="#2ca02c" stroke-width="2" points="81.82,512.32 88.25,512.32 94.67,512.32 101.10,512.32 107.53,512.32 113.96,512.32 120.39,512.32 126.81,512.32 133.24,512.33 139.67,512.33 146.10,512.33 152.53,512.33 158.95,512.34 165.38,512.35 171.81,512.36 178.24,512.38 184.66,512.41 191.09,512.45 197.52,512.50 203.95,512.57 210.38,512.66 216.80,512.79 223.23,512.95 229.66,513.16 236.09,513.42 242.52,513.74 248.94,514.13 255.37,514.60 261.80,515.15 268.23,515.80 274.66,516.55 281.08,517.39 287.51,518.32 293.94,519.34 300.37,520.42 306.80,521.55 313.22,522.70 319.65,523.82 326.08,524.87 332.51,525.81 338.93,526.56 345.36,527.07 351.79,527.27 358.22,527.09 364.65,526.45 371.07,525.30 377.50,523.57 383.93,521.21 390.36,518.18 396.79,514.45 403.21,510.01 409.64,504.86 416.07,499.01 422.50,492.49 428.93,485.34 435.35,477.61 441.78,469.36 448.21,460.67 454.64,451.59 461.07,442.20 467.49,432.56 473.92,422.74 480.35,412.81 486.78,402.81 493.20,392.78 499.63,382.77 506.06,372.81 512.49,362.91 518.92,353.10 525.34,343.37 531.77,333.75 538.20,324.22 544.63,314.78 551.06,305.43 557.48,296.16 563.91,286.96 570.34,277.82 576.77,268.73 583.20,259.69 589.62,250.68 596.05,241.71 602.48,232.76 608.91,223.82 615.34,214.90 621.76,206.00 628.19,197.10 634.62,188.20 641.05,179.31 647.47,170.43 653.90,161.54 660.33,152.66 666.76,143.78 673.19,134.89 679.61,126.01 686.04,117.13 692.47,108.25 698.90,99.37 705.33,90.49 711.75,81.61 718.18,72.73" />
<line class="x-tick" x1="145.45" y1="550.00" x2="145.45" y2="555.00" stroke="#000" />
<text class="tick-label tick-label-x" x="145.45" y="557.00" text-anchor="middle" dominant-baseline="hanging" font-size="10" fill="#000">-4</text>
<line class="x-tick" x1="272.73" y1="550.00" x2="272.73" y2="555.00" stroke="#000" />
<text class="tick-label tick-label-x" x="272.73" y="557.00" text-anchor="middle" dominant-baseline="hanging" font-size="10" fill="#000">-2</text>
<line class="x-tick" x1="400.00" y1="550.00" x2="400.00" y2="555.00" stroke="#000" />
<text class="tick-label tick-label-x" x="400.00" y="557.00" text-anchor="middle" dominant-baseline="hanging" font-size="10" fill="#000">0</text>
<line class="x-tick" x1="527.27" y1="550.00" x2="527.27" y2="555.00" stroke="#000" />
<text class="tick-label tick-label-x" x="527.27" y="557.00" text-anchor="middle" dominant-baseline="hanging" font-size="10" fill="#000">2</text>
<line class="x-tick" x1="654.55" y1="550.00" x2="654.55" y2="555.00" stroke="#000" />
<text class="tick-label tick-label-x" x="654.55" y="557.00" text-anchor="middle" dominant-baseline="hanging" font-size="10" fill="#000">4</text>
<line class="y-tick" x1="50.00" y1="512.32" x2="45.00" y2="512.32" stroke="#000" />
<text class="tick-label tick-label-y" x="43.00" y="512.32" text-anchor="end" dominant-baseline="middle" font-size="10" fill="#000">0</text>
<line class="y-tick" x1="50.00" y1="424.40" x2="45.00" y2="424.40" stroke="#000" />
<text class="tick-label tick-label-y" x="43.00" y="424.40" text-anchor="end" dominant-baseline="middle" font-size="10" fill="#000">1</text>
<line class="y-tick" x1="50.00" y1="336.48" x2="45.00" y2="336.48" stroke="#000" />
<text class="tick-label tick-label-y" x="43.00" y="336.48" text-anchor="end" dominant-baseline="middle" font-size="10" fill="#000">2</text>
<line class="y-tick" x1="50.00" y1="248.57" x2="45.00" y2="248.57" stroke="#000" />
<text class="tick-label tick-label-y" x="43.00" y="248.57" text-anchor="end" dominant-baseline="middle" font-size="10" fill="#000">3</text>
<line class="y-tick" x1="50.00" y1="160.65" x2="45.00" y2="160.65" stroke="#000" />
<text class="tick-label tick-label-y" x="43.00" y="160.65" text-anchor="end" dominant-baseline="middle" font-size="10" fill="#000">4</text>
<line class="y-tick" x1="50.00" y1="72.73" x2="45.00" y2="72.73" stroke="#000" />
<text class="tick-label tick-label-y" x="43.00" y="72.73" text-anchor="end" dominant-baseline="middle" font-size="10" fill="#000">5</text>
<text x="400" y="40" text-anchor="middle" font-size="14" font-weight="bold" fill="#000">Activation Functions Comparison</text>
<text x="400" y="585" text-anchor="middle" font-size="12" fill="#000">Input</text>
<text x="15" y="300" text-anchor="middle" font-size="12" fill="#000" transform="rotate(-90 15 300)">Output</text>
</svg>