<?xml version="1.0" encoding="UTF-8"?>
<svg xmlns="http://www.w3.org/2000/svg" width="800" height="400" viewBox="0 0 800 400">
<rect x="0" y="0" width="800" height="400" fill="#ffffff" />
<rect x="50" y="50" width="700" height="300" fill="#ffffff" stroke="#000" />
<rect x="81.82" y="69.24" width="282.83" height="267.12" fill="#4caf50" stroke="#000000" />
<rect x="435.35" y="63.64" width="282.83" height="272.73" fill="#4caf50" stroke="#000000" />
<line class="x-tick" x1="81.82" y1="350.00" x2="81.82" y2="355.00" stroke="#000" />
<text class="tick-label tick-label-x" x="81.82" y="357.00" text-anchor="middle" dominant-baseline="hanging" font-size="10" fill="#000">-0.4</text>
<line class="x-tick" x1="152.53" y1="350.00" x2="152.53" y2="355.00" stroke="#000" />
<text class="tick-label tick-label-x" x="152.53" y="357.00" text-anchor="middle" dominant-baseline="hanging" font-size="10" fill="#000">-0.2</text>
<line class="x-tick" x1="223.23" y1="350.00" x2="223.23" y2="355.00" stroke="#000" />
<text class="tick-label tick-label-x" x="223.23" y="357.00" text-anchor="middle" dominant-baseline="hanging" font-size="10" fill="#000">0</text>
<line class="x-tick" x1="293.94" y1="350.00" x2="293.94" y2="355.00" stroke="#000" />
<text class="tick-label tick-label-x" x="293.94" y="357.00" text-anchor="middle" dominant-baseline="hanging" font-size="10" fill="#000">0.2</text>
<line class="x-tick" x1="364.65" y1="350.00" x2="364.65" y2="355.00" stroke="#000" />
<text class="tick-label tick-label-x" x="364.65" y="357.00" text-anchor="middle" dominant-baseline="hanging" font-size="10" fill="#000">0.4</text>
<line class="x-tick" x1="435.35" y1="350.00" x2="435.35" y2="355.00" stroke="#000" />
<text class="tick-label tick-label-x" x="435.35" y="357.00" text-anchor="middle" dominant-baseline="hanging" font-size="10" fill="#000">0.6</text>
<line class="x-tick" x1="506.06" y1="350.00" x2="506.06" y2="355.00" stroke="#000" />
<text class="tick-label tick-label-x" x="506.06" y="357.00" text-anchor="middle" dominant-baseline="hanging" font-size="10" fill="#000">0.8</text>
<line class="x-tick" x1="576.77" y1="350.00" x2="576.77" y2="355.00" stroke="#000" />
<text class="tick-label tick-label-x" x="576.77" y="357.00" text-anchor="middle" dominant-baseline="hanging" font-size="10" fill="#000">1</text>
<line class="x-tick" x1="647.47" y1="350.00" x2="647.47" y2="355.00" stroke="#000" />
<text class="tick-label tick-label-x" x="647.47" y="357.00" text-anchor="middle" dominant-baseline="hanging" font-size="10" fill="#000">1.2</text>
<line class="x-tick" x1="718.18" y1="350.00" x2="718.18" y2="355.00" stroke="#000" />
<text class="tick-label tick-label-x" x="718.18" y="357.00" text-anchor="middle" dominant-baseline="hanging" font-size="10" fill="#000">1.4</text>
<line class="y-tick" x1="50.00" y1="336.36" x2="45.00" y2="336.36" stroke="#000" />
<text class="tick-label tick-label-y" x="43.00" y="336.36" text-anchor="end" dominant-baseline="middle" font-size="10" fill="#000">0</text>
<line class="y-tick" x1="50.00" y1="189.77" x2="45.00" y2="189.77" stroke="#000" />
<text class="tick-label tick-label-y" x="43.00" y="189.77" text-anchor="end" dominant-baseline="middle" font-size="10" fill="#000">50</text>
<text x="400" y="40" text-anchor="middle" font-size="14" font-weight="bold" fill="#000">Model Comparison (F1 Score)</text>
<text x="400" y="385" text-anchor="middle" font-size="12" fill="#000">Model</text>
<text x="15" y="200" text-anchor="middle" font-size="12" fill="#000" transform="rotate(-90 15 200)">F1 Score (%)</text>
</svg>